<!-- Origin: procedural face cut-in portrait written by art/concepts/faces/gen.mjs (deterministic, no external images or fonts), Art Director session (Claude, claude-sonnet-5-5), 2026-10-01; prompt record art/prompts/ART-0010-rule-of-cool-art.md -->
<svg xmlns="http://www.w3.org/2000/svg" width="512" height="512" viewBox="0 0 512 512"><defs><clipPath id="fc-Aneutral-neutral"><polygon points="30,0 512,0 512,482 482,512 0,512 0,30"/></clipPath></defs><g clip-path="url(#fc-Aneutral-neutral)"><rect x="0.00" y="0.00" width="512.00" height="512.00" fill="#cbbdf0" /><polygon points="330,0 400,0 190,512 110,512" fill="#b7a3e8"/><polygon points="470,0 512,0 512,120 330,512 290,512" fill="#b7a3e8"/><polygon points="0,260 60,200 60,512 0,512" fill="#b7a3e8"/><g transform="translate(137.13 1451.71) scale(15 -15)"><polygon points="9.06,63.65 8.81,58.28 7.00,49.67 2.10,50.22 2.26,59.02 3.22,64.31" fill="#181228" stroke="#120c1e" stroke-width="2.4000000000000004" stroke-linejoin="round" vector-effect="non-scaling-stroke"/><polygon points="3.22,64.31 2.26,59.02 2.10,50.22 3.96,50.01 4.75,58.74 5.44,64.06" fill="#181228" opacity="0.9"/><polygon points="7.01,49.72 6.85,44.69 5.50,36.58 1.22,36.97 1.34,45.19 2.09,50.17" fill="#181228" stroke="#120c1e" stroke-width="2.4000000000000004" stroke-linejoin="round" vector-effect="non-scaling-stroke"/><polygon points="2.09,50.17 1.34,45.19 1.22,36.97 2.84,36.82 3.44,45.00 3.96,50.00" fill="#181228" opacity="0.9"/><polygon points="5.45,36.59 6.41,34.31 5.67,30.80 0.02,31.31 -0.08,34.89 1.27,36.96" fill="#7d5238" stroke="#120c1e" stroke-width="2.4000000000000004" stroke-linejoin="round" vector-effect="non-scaling-stroke"/><polygon points="4.51,40.35 4.83,33.64 2.87,22.77 -4.06,23.00 -5.28,33.98 -4.51,40.66" fill="#181228" stroke="#120c1e" stroke-width="2.4000000000000004" stroke-linejoin="round" vector-effect="non-scaling-stroke"/><polygon points="-4.51,40.66 -5.28,33.98 -4.06,23.00 -1.42,22.92 -1.44,33.85 -1.08,40.54" fill="#181228" opacity="0.9"/><polygon points="2.87,22.85 3.21,16.14 2.04,5.22 -3.63,5.28 -4.55,16.23 -4.06,22.93" fill="#181228" stroke="#120c1e" stroke-width="2.4000000000000004" stroke-linejoin="round" vector-effect="non-scaling-stroke"/><polygon points="-4.06,22.93 -4.55,16.23 -3.63,5.28 -1.47,5.26 -1.60,16.20 -1.42,22.90" fill="#181228" opacity="0.9"/><polygon points="-2.78,8.11 1.33,7.85 1.27,3.65 5.18,1.30 5.48,-0.41 -3.55,0.16 -3.44,3.94" fill="#120b1e" stroke="#120c1e" stroke-width="2.4000000000000004" stroke-linejoin="round" vector-effect="non-scaling-stroke"/><polygon points="-2.78,8.11 -3.44,3.94 -3.55,0.16 -0.15,0.16 -1.24,5.14 -1.18,8.11" fill="#0d0816" opacity="0.9"/><polygon points="-2.78,10.21 1.60,9.94 1.46,6.58 -3.06,6.87" fill="#cbd3e2" stroke="#120c1e" stroke-width="1.7600000000000002" stroke-linejoin="round" vector-effect="non-scaling-stroke"/><polygon points="9.06,37.14 8.96,50.64 11.10,58.40 10.18,64.96 6.01,67.28 -4.55,67.65 -8.93,64.32 -9.64,58.25 -8.55,50.38 -9.56,37.79" fill="#2a2043" stroke="#120c1e" stroke-width="2.4000000000000004" stroke-linejoin="round" vector-effect="non-scaling-stroke"/><polygon points="-9.56,37.79 -8.55,50.38 -9.64,58.25 -8.93,64.32 -4.55,67.65 0.10,67.49 -5.10,64.19 -7.63,58.18 -4.74,50.24 -5.60,37.65" fill="#181228" opacity="0.9"/><polygon points="-9.56,37.79 9.06,37.14 9.06,41.23 -9.28,41.87" fill="#2a2043"/><polygon points="4.51,40.66 5.28,33.98 4.06,23.00 -2.87,22.77 -4.83,33.64 -4.51,40.35" fill="#2a2043" stroke="#120c1e" stroke-width="2.4000000000000004" stroke-linejoin="round" vector-effect="non-scaling-stroke"/><polygon points="-4.51,40.35 -4.83,33.64 -2.87,22.77 -0.24,22.86 -0.99,33.77 -1.08,40.47" fill="#181228" opacity="0.9"/><polygon points="4.06,22.93 4.55,16.23 3.63,5.28 -2.04,5.22 -3.21,16.14 -2.87,22.85" fill="#2a2043" stroke="#120c1e" stroke-width="2.4000000000000004" stroke-linejoin="round" vector-effect="non-scaling-stroke"/><polygon points="-2.87,22.85 -3.21,16.14 -2.04,5.22 0.11,5.24 -0.26,16.17 -0.24,22.88" fill="#181228" opacity="0.9"/><polygon points="-1.54,7.84 2.57,8.10 3.04,3.92 7.21,2.08 7.72,0.43 -1.30,-0.14 -1.68,3.62" fill="#181228" stroke="#120c1e" stroke-width="2.4000000000000004" stroke-linejoin="round" vector-effect="non-scaling-stroke"/><polygon points="-1.54,7.84 -1.68,3.62 -1.30,-0.14 2.10,-0.14 0.52,4.82 0.06,7.84" fill="#0d0816" opacity="0.9"/><polygon points="-1.80,9.93 2.58,10.20 2.85,6.85 -1.66,6.57" fill="#cbd3e2" stroke="#120c1e" stroke-width="1.7600000000000002" stroke-linejoin="round" vector-effect="non-scaling-stroke"/><polygon points="-7.99,66.29 -12.17,66.26 -13.09,64.73 -12.58,62.71 -8.13,62.29" fill="#eef2f8" stroke="#120c1e" stroke-width="1.7600000000000002" stroke-linejoin="round" vector-effect="non-scaling-stroke"/><polygon points="-8.07,64.20 -12.68,64.10 -12.58,62.71 -8.13,62.29" fill="#8a95ac" opacity="0.9"/><polygon points="-8.12,62.55 -12.30,62.52 -13.22,60.99 -12.72,58.97 -8.26,58.55" fill="#cbd3e2" stroke="#120c1e" stroke-width="1.7600000000000002" stroke-linejoin="round" vector-effect="non-scaling-stroke"/><polygon points="-8.20,60.46 -12.81,60.36 -12.72,58.97 -8.26,58.55" fill="#8a95ac" opacity="0.9"/><polygon points="-8.25,58.81 -12.43,58.78 -13.35,57.25 -12.85,55.23 -8.39,54.81" fill="#eef2f8" stroke="#120c1e" stroke-width="1.7600000000000002" stroke-linejoin="round" vector-effect="non-scaling-stroke"/><polygon points="-8.33,56.72 -12.94,56.62 -12.85,55.23 -8.39,54.81" fill="#8a95ac" opacity="0.9"/><polygon points="-8.39,55.07 -12.56,55.04 -13.48,53.51 -12.98,51.49 -8.52,51.07" fill="#cbd3e2" stroke="#120c1e" stroke-width="1.7600000000000002" stroke-linejoin="round" vector-effect="non-scaling-stroke"/><polygon points="-8.46,52.99 -13.07,52.89 -12.98,51.49 -8.52,51.07" fill="#8a95ac" opacity="0.9"/><polygon points="-8.52,51.33 -12.69,51.31 -13.61,49.77 -13.11,47.75 -8.66,47.33" fill="#eef2f8" stroke="#120c1e" stroke-width="1.7600000000000002" stroke-linejoin="round" vector-effect="non-scaling-stroke"/><polygon points="-8.59,49.25 -13.20,49.15 -13.11,47.75 -8.66,47.33" fill="#8a95ac" opacity="0.9"/><polygon points="-8.65,47.60 -12.83,47.57 -13.74,46.03 -13.24,44.01 -8.79,43.60" fill="#cbd3e2" stroke="#120c1e" stroke-width="1.7600000000000002" stroke-linejoin="round" vector-effect="non-scaling-stroke"/><polygon points="-8.72,45.51 -13.33,45.41 -13.24,44.01 -8.79,43.60" fill="#8a95ac" opacity="0.9"/><polygon points="-9.46,44.84 9.60,44.17 9.56,47.13 -9.50,47.80" fill="#8a95ac" stroke="#120c1e" stroke-width="1.7600000000000002" stroke-linejoin="round" vector-effect="non-scaling-stroke"/><polygon points="-1.82,66.68 -2.11,67.83 -1.40,69.67 3.43,69.50 4.01,67.62 3.64,66.49" fill="#1a1530" stroke="#120c1e" stroke-width="2.4000000000000004" stroke-linejoin="round" vector-effect="non-scaling-stroke"/><polygon points="-6.46,70.91 -7.02,78.35 -5.96,85.31 1.66,88.02 9.24,85.84 10.91,78.79 9.59,72.47 5.73,69.42" fill="#2b2444" stroke="#120c1e" stroke-width="2.4000000000000004" stroke-linejoin="round" vector-effect="non-scaling-stroke"/><polygon points="-6.46,70.91 -7.02,78.35 -5.96,85.31 1.66,88.02 4.21,87.50 -4.09,82.92 -4.33,76.14 -1.54,70.10" fill="#1a1530" opacity="0.9"/><polygon points="4.65,71.70 7.84,71.06 9.77,86.67 9.08,86.99" fill="#c2adf0" opacity="0.26"/><polygon points="10.59,84.74 10.46,85.53 10.07,85.87 9.67,85.56 9.48,84.78 9.61,83.98 10.00,83.64 10.40,83.96" fill="#c2adf0" opacity="0.26"/><polygon points="6.26,74.15 8.00,73.74 9.29,84.14 8.82,84.36" fill="#c2adf0"/><polygon points="9.84,82.85 9.75,83.38 9.49,83.61 9.22,83.40 9.09,82.88 9.18,82.35 9.44,82.13 9.71,82.33" fill="#c2adf0"/><polygon points="9.69,82.96 8.85,86.18 2.51,87.78 -5.79,86.37 -7.17,81.75 -6.76,77.92 -5.61,79.79 -1.54,82.40 6.64,83.18" fill="#1d1630" stroke="#120c1e" stroke-width="2.4000000000000004" stroke-linejoin="round" vector-effect="non-scaling-stroke"/><polygon points="-5.43,80.84 -11.55,76.48 -18.97,74.13 -19.85,75.47 -14.39,80.83 -8.28,85.19" fill="#1d1630" stroke="#120c1e" stroke-width="2.4000000000000004" stroke-linejoin="round" vector-effect="non-scaling-stroke"/><polygon points="-1.58,64.31 -0.62,59.02 -0.46,50.22 -5.36,49.67 -7.17,58.28 -7.42,63.65" fill="#2a2043" stroke="#120c1e" stroke-width="2.4000000000000004" stroke-linejoin="round" vector-effect="non-scaling-stroke"/><polygon points="-7.42,63.65 -7.17,58.28 -5.36,49.67 -3.50,49.88 -4.68,58.56 -5.20,63.90" fill="#181228" opacity="0.9"/><polygon points="-0.45,50.17 0.30,45.19 0.42,36.97 -3.86,36.58 -5.21,44.69 -5.37,49.72" fill="#2a2043" stroke="#120c1e" stroke-width="2.4000000000000004" stroke-linejoin="round" vector-effect="non-scaling-stroke"/><polygon points="-5.37,49.72 -5.21,44.69 -3.86,36.58 -2.23,36.73 -3.12,44.88 -3.50,49.89" fill="#181228" opacity="0.9"/><polygon points="0.17,46.24 0.30,45.34 0.17,43.85 -4.85,43.40 -5.24,44.84 -5.27,45.75" fill="#cbd3e2" stroke="#120c1e" stroke-width="1.6" stroke-linejoin="round" vector-effect="non-scaling-stroke"/><polygon points="0.45,43.08 0.59,42.18 0.46,40.69 -4.56,40.24 -4.96,41.68 -4.99,42.59" fill="#cbd3e2" stroke="#120c1e" stroke-width="1.6" stroke-linejoin="round" vector-effect="non-scaling-stroke"/><polygon points="0.74,39.92 0.87,39.02 0.74,37.53 -4.28,37.07 -4.67,38.52 -4.70,39.43" fill="#cbd3e2" stroke="#120c1e" stroke-width="1.6" stroke-linejoin="round" vector-effect="non-scaling-stroke"/><polygon points="0.37,36.96 1.72,34.89 1.62,31.31 -4.03,30.80 -4.77,34.31 -3.81,36.59" fill="#b98462" stroke="#120c1e" stroke-width="2.4000000000000004" stroke-linejoin="round" vector-effect="non-scaling-stroke"/></g><rect x="0.00" y="478.00" width="512.00" height="34.00" fill="#000" opacity="0.0"/></g><polygon points="30,0 512,0 512,482 482,512 0,512 0,30" fill="none" stroke="#5b479a" stroke-width="10" stroke-linejoin="miter"/><polygon points="30,0 512,0 512,482 482,512 0,512 0,30" fill="none" stroke="#14101f" stroke-width="2" stroke-linejoin="miter" transform="translate(0 0)"/><rect x="360.00" y="470.00" width="118.00" height="12.00" fill="#9a80d8" stroke="#14101f" stroke-width="2"/></svg>