<!-- Origin: procedural face cut-in portrait written by art/concepts/faces/gen.mjs (deterministic, no external images or fonts), Art Director session (Claude, claude-sonnet-5-5), 2026-10-01; prompt record art/prompts/ART-0010-rule-of-cool-art.md -->
<svg xmlns="http://www.w3.org/2000/svg" width="512" height="512" viewBox="0 0 512 512"><defs><clipPath id="fc-Cneutral-neutral"><polygon points="30,0 512,0 512,482 482,512 0,512 0,30"/></clipPath></defs><g clip-path="url(#fc-Cneutral-neutral)"><rect x="0.00" y="0.00" width="512.00" height="512.00" fill="#e8c9c2" /><rect x="300" y="400" width="212" height="112" fill="#f0b4a8"/><rect x="372" y="328" width="140" height="72" fill="#f0b4a8"/><rect x="444" y="256" width="68" height="72" fill="#f0b4a8"/><rect x="20" y="20" width="90" height="90" fill="#f0b4a8"/><rect x="110" y="110" width="60" height="60" fill="#f0b4a8"/><g transform="translate(129.22 1612.44) scale(15 -15)"><polygon points="11.24,73.32 11.05,67.54 8.92,58.32 2.47,59.05 2.45,68.51 3.56,74.19" fill="#220b10" stroke="#14070a" stroke-width="2.4000000000000004" stroke-linejoin="round" vector-effect="non-scaling-stroke"/><polygon points="3.56,74.19 2.45,68.51 2.47,59.05 4.92,58.77 5.72,68.14 6.48,73.86" fill="#220b10" opacity="0.9"/><polygon points="8.92,58.39 8.83,52.99 7.23,44.29 1.60,44.80 1.59,53.64 2.46,58.98" fill="#220b10" stroke="#14070a" stroke-width="2.4000000000000004" stroke-linejoin="round" vector-effect="non-scaling-stroke"/><polygon points="2.46,58.98 1.59,53.64 1.60,44.80 3.74,44.61 4.34,53.39 4.92,58.76" fill="#220b10" opacity="0.9"/><polygon points="7.17,44.30 8.43,41.30 7.45,36.69 0.03,37.36 -0.11,42.07 1.67,44.79" fill="#6d6369" stroke="#14070a" stroke-width="2.4000000000000004" stroke-linejoin="round" vector-effect="non-scaling-stroke"/><polygon points="5.93,46.57 6.39,38.98 3.88,26.69 -5.22,27.00 -6.90,39.42 -5.93,46.97" fill="#220b10" stroke="#14070a" stroke-width="2.4000000000000004" stroke-linejoin="round" vector-effect="non-scaling-stroke"/><polygon points="-5.93,46.97 -6.90,39.42 -5.22,27.00 -1.76,26.88 -1.85,39.25 -1.42,46.82" fill="#220b10" opacity="0.9"/><polygon points="3.88,26.80 4.34,19.21 2.83,6.86 -4.62,6.94 -5.86,19.32 -5.22,26.90" fill="#220b10" stroke="#14070a" stroke-width="2.4000000000000004" stroke-linejoin="round" vector-effect="non-scaling-stroke"/><polygon points="-5.22,26.90 -5.86,19.32 -4.62,6.94 -1.79,6.91 -1.98,19.28 -1.76,26.86" fill="#220b10" opacity="0.9"/><polygon points="-3.45,10.69 1.94,10.28 1.79,4.76 6.88,1.60 7.25,-0.64 -4.61,0.26 -4.40,5.23" fill="#100a14" stroke="#14070a" stroke-width="2.4000000000000004" stroke-linejoin="round" vector-effect="non-scaling-stroke"/><polygon points="-3.45,10.69 -4.40,5.23 -4.61,0.26 -1.21,0.26 -2.20,6.43 -1.85,10.69" fill="#0b060f" opacity="0.9"/><polygon points="-3.42,13.46 2.33,13.02 2.08,8.61 -3.84,9.06" fill="#cfc7cb" stroke="#14070a" stroke-width="1.7600000000000002" stroke-linejoin="round" vector-effect="non-scaling-stroke"/><polygon points="-11.22,74.78 -15.76,74.94 -16.38,57.35 -11.84,57.19" fill="#220b10" stroke="#14070a" stroke-width="2.08" stroke-linejoin="round" vector-effect="non-scaling-stroke"/><polygon points="-12.19,72.21 -14.98,72.31 -15.03,70.91 -12.23,70.81" fill="#d8705f" stroke="#14070a" stroke-width="1.2800000000000002" stroke-linejoin="round" vector-effect="non-scaling-stroke"/><polygon points="-12.31,68.61 -15.11,68.71 -15.16,67.31 -12.36,67.21" fill="#d8705f" stroke="#14070a" stroke-width="1.2800000000000002" stroke-linejoin="round" vector-effect="non-scaling-stroke"/><polygon points="-12.44,65.01 -15.23,65.11 -15.28,63.71 -12.49,63.62" fill="#d8705f" stroke="#14070a" stroke-width="1.2800000000000002" stroke-linejoin="round" vector-effect="non-scaling-stroke"/><polygon points="-12.56,61.42 -15.36,61.51 -15.41,60.12 -12.61,60.02" fill="#d8705f" stroke="#14070a" stroke-width="1.2800000000000002" stroke-linejoin="round" vector-effect="non-scaling-stroke"/><polygon points="11.01,42.88 10.86,58.40 13.44,67.31 12.31,74.86 7.24,77.54 -5.59,77.98 -10.89,74.17 -11.75,67.19 -10.40,58.14 -11.61,43.67" fill="#3a161c" stroke="#14070a" stroke-width="2.4000000000000004" stroke-linejoin="round" vector-effect="non-scaling-stroke"/><polygon points="-11.61,43.67 -10.40,58.14 -11.75,67.19 -10.89,74.17 -5.59,77.98 0.06,77.79 -6.24,74.00 -9.31,67.11 -5.77,57.98 -6.79,43.50" fill="#220b10" opacity="0.9"/><polygon points="-11.61,43.67 11.01,42.88 11.00,47.59 -11.27,48.36" fill="#3a161c"/><polygon points="5.93,46.97 6.90,39.42 5.22,27.00 -3.88,26.69 -6.39,38.98 -5.93,46.57" fill="#3a161c" stroke="#14070a" stroke-width="2.4000000000000004" stroke-linejoin="round" vector-effect="non-scaling-stroke"/><polygon points="-5.93,46.57 -6.39,38.98 -3.88,26.69 -0.42,26.81 -1.34,39.15 -1.42,46.72" fill="#220b10" opacity="0.9"/><polygon points="5.22,26.90 5.86,19.32 4.62,6.94 -2.83,6.86 -4.34,19.21 -3.88,26.80" fill="#3a161c" stroke="#14070a" stroke-width="2.4000000000000004" stroke-linejoin="round" vector-effect="non-scaling-stroke"/><polygon points="-3.88,26.80 -4.34,19.21 -2.83,6.86 0.00,6.89 -0.47,19.25 -0.42,26.83" fill="#220b10" opacity="0.9"/><polygon points="-2.21,10.26 3.19,10.67 3.87,5.19 9.39,2.84 10.09,0.68 -1.76,-0.22 -2.32,4.72" fill="#220b10" stroke="#14070a" stroke-width="2.4000000000000004" stroke-linejoin="round" vector-effect="non-scaling-stroke"/><polygon points="-2.21,10.26 -2.32,4.72 -1.76,-0.22 1.64,-0.22 -0.12,5.92 -0.61,10.26" fill="#0b060f" opacity="0.9"/><polygon points="-2.60,13.00 3.15,13.44 3.58,9.04 -2.35,8.59" fill="#cfc7cb" stroke="#14070a" stroke-width="1.7600000000000002" stroke-linejoin="round" vector-effect="non-scaling-stroke"/><polygon points="11.73,73.38 13.09,62.32 11.35,52.38 -11.45,53.17 -11.66,67.19 -10.89,74.17" fill="url(#mail)" opacity="0.55"/><polygon points="-11.42,54.17 -13.76,39.36 -8.88,40.82 -4.47,39.36 0.31,40.15 4.79,39.07 9.50,39.48 13.99,38.50 11.90,53.36" fill="#8c8187" stroke="#14070a" stroke-width="2.4000000000000004" stroke-linejoin="round" vector-effect="non-scaling-stroke"/><polygon points="-11.42,54.17 -13.76,39.36 13.99,38.50 11.90,53.36" fill="url(#mail)" opacity="0.7"/><polygon points="6.38,74.96 8.30,74.90 7.94,54.50 6.02,54.56" fill="#cfc7cb" stroke="#14070a" stroke-width="1.6" stroke-linejoin="round" vector-effect="non-scaling-stroke"/><polygon points="5.45,71.59 9.23,71.46 9.04,66.07 5.27,66.20" fill="#220b10" stroke="#14070a" stroke-width="2.08" stroke-linejoin="round" vector-effect="non-scaling-stroke"/><polygon points="6.56,70.15 8.48,70.09 8.39,67.49 6.47,67.56" fill="#f0b4a8" stroke="#14070a" stroke-width="1.4400000000000002" stroke-linejoin="round" vector-effect="non-scaling-stroke"/><polygon points="5.30,59.59 8.64,59.48 8.52,56.08 5.19,56.19" fill="#220b10" stroke="#14070a" stroke-width="1.92" stroke-linejoin="round" vector-effect="non-scaling-stroke"/><polygon points="-12.00,67.60 -9.55,67.52 -9.68,63.72 -12.13,63.80" fill="#220b10" stroke="#14070a" stroke-width="1.92" stroke-linejoin="round" vector-effect="non-scaling-stroke"/><polyline points="-13.69,74.26 -4.01,78.93 11.26,74.99 12.36,66.35" fill="none" stroke="#220b10" stroke-width="5.44" stroke-linecap="round" stroke-linejoin="round" vector-effect="non-scaling-stroke"/><polyline points="-13.69,74.26 -4.01,78.93 11.26,74.99 12.36,66.35" fill="none" stroke="#d8705f" stroke-width="1.7600000000000002" stroke-linecap="round" stroke-linejoin="round" vector-effect="non-scaling-stroke"/><polyline points="-15.09,59.30 -7.56,51.04 10.45,51.81 11.80,55.36" fill="none" stroke="#220b10" stroke-width="5.44" stroke-linecap="round" stroke-linejoin="round" vector-effect="non-scaling-stroke"/><polyline points="-15.09,59.30 -7.56,51.04 10.45,51.81 11.80,55.36" fill="none" stroke="#d8705f" stroke-width="1.7600000000000002" stroke-linecap="round" stroke-linejoin="round" vector-effect="non-scaling-stroke"/><polygon points="-2.54,76.88 -2.93,78.03 -2.02,79.86 4.32,79.64 5.10,77.75 4.63,76.63" fill="#221f29" stroke="#14070a" stroke-width="2.4000000000000004" stroke-linejoin="round" vector-effect="non-scaling-stroke"/><polygon points="-7.63,80.73 -7.04,97.52 11.14,96.88 10.70,80.09" fill="#34313d" stroke="#14070a" stroke-width="2.4000000000000004" stroke-linejoin="round" vector-effect="non-scaling-stroke"/><polygon points="-7.63,80.73 -7.04,97.52 -5.17,97.45 -5.76,80.66" fill="#221f29" opacity="0.9"/><polygon points="-4.11,94.95 9.28,94.48 9.32,95.83 -4.06,96.29" fill="#220b10" stroke="#14070a" stroke-width="1.2800000000000002" stroke-linejoin="round" vector-effect="non-scaling-stroke"/><polygon points="-2.50,85.68 1.10,85.56 1.18,87.84 -2.42,87.97" fill="#f0b4a8" opacity="0.26"/><polygon points="0.96,87.71 5.41,87.56 5.51,90.38 1.06,90.53" fill="#f0b4a8" opacity="0.26"/><polygon points="5.71,90.10 9.17,89.98 9.28,93.34 5.83,93.46" fill="#f0b4a8" opacity="0.26"/><polygon points="9.26,92.80 11.22,92.73 11.35,96.63 9.40,96.70" fill="#f0b4a8" opacity="0.26"/><polygon points="0.28,87.31 2.68,87.23 2.73,88.75 0.33,88.83" fill="#f0b4a8"/><polygon points="2.59,88.66 5.55,88.56 5.62,90.44 2.65,90.55" fill="#f0b4a8"/><polygon points="5.75,90.26 8.62,90.16 8.70,92.40 5.83,92.50" fill="#f0b4a8"/><polygon points="8.69,92.04 9.99,91.99 10.08,94.59 8.78,94.63" fill="#f0b4a8"/><polygon points="-1.68,74.19 -0.57,68.51 -0.59,59.05 -7.03,58.32 -9.17,67.54 -9.36,73.32" fill="#3a161c" stroke="#14070a" stroke-width="2.4000000000000004" stroke-linejoin="round" vector-effect="non-scaling-stroke"/><polygon points="-9.36,73.32 -9.17,67.54 -7.03,58.32 -4.58,58.60 -5.90,67.91 -6.44,73.65" fill="#220b10" opacity="0.9"/><polygon points="-0.58,58.98 0.29,53.64 0.29,44.80 -5.35,44.29 -6.94,52.99 -7.04,58.39" fill="#3a161c" stroke="#14070a" stroke-width="2.4000000000000004" stroke-linejoin="round" vector-effect="non-scaling-stroke"/><polygon points="-7.04,58.39 -6.94,52.99 -5.35,44.29 -3.21,44.48 -4.19,53.23 -4.58,58.62" fill="#220b10" opacity="0.9"/><polygon points="0.65,58.38 1.14,55.98 0.82,51.98 -7.16,51.26 -8.19,55.14 -8.14,57.58" fill="#8c8187" stroke="#14070a" stroke-width="1.7600000000000002" stroke-linejoin="round" vector-effect="non-scaling-stroke"/><polygon points="0.65,58.38 1.14,55.98 0.82,51.98 -7.16,51.26 -8.19,55.14 -8.14,57.58" fill="url(#mail)" opacity="0.7"/><polygon points="1.43,51.32 1.87,48.92 1.73,44.93 -6.79,44.16 -7.65,48.06 -7.64,50.50" fill="#cfc7cb" stroke="#14070a" stroke-width="1.92" stroke-linejoin="round" vector-effect="non-scaling-stroke"/><polygon points="0.22,44.79 1.99,42.07 1.86,37.36 -5.56,36.69 -6.54,41.30 -5.28,44.30" fill="#a99fa5" stroke="#14070a" stroke-width="2.4000000000000004" stroke-linejoin="round" vector-effect="non-scaling-stroke"/></g><rect x="0.00" y="478.00" width="512.00" height="34.00" fill="#000" opacity="0.0"/></g><polygon points="30,0 512,0 512,482 482,512 0,512 0,30" fill="none" stroke="#8a3a30" stroke-width="10" stroke-linejoin="miter"/><polygon points="30,0 512,0 512,482 482,512 0,512 0,30" fill="none" stroke="#14101f" stroke-width="2" stroke-linejoin="miter" transform="translate(0 0)"/><rect x="360.00" y="470.00" width="118.00" height="12.00" fill="#d8705f" stroke="#14101f" stroke-width="2"/></svg>