<!-- Origin: procedural face cut-in portrait written by art/concepts/faces/gen.mjs (deterministic, no external images or fonts), Art Director session (Claude, claude-sonnet-5-5), 2026-10-01; prompt record art/prompts/ART-0010-rule-of-cool-art.md -->
<svg xmlns="http://www.w3.org/2000/svg" width="512" height="512" viewBox="0 0 512 512"><defs><clipPath id="fc-Cstrain-strain"><polygon points="30,0 512,0 512,482 482,512 0,512 0,30"/></clipPath></defs><g clip-path="url(#fc-Cstrain-strain)"><rect x="0.00" y="0.00" width="512.00" height="512.00" fill="#e8c9c2" /><rect x="300" y="400" width="212" height="112" fill="#f0b4a8"/><rect x="372" y="328" width="140" height="72" fill="#f0b4a8"/><rect x="444" y="256" width="68" height="72" fill="#f0b4a8"/><rect x="20" y="20" width="90" height="90" fill="#f0b4a8"/><rect x="110" y="110" width="60" height="60" fill="#f0b4a8"/><g transform="translate(-22.82 1545.07) scale(15 -15)"><polygon points="16.37,72.64 16.18,66.86 14.05,57.64 7.60,58.38 7.58,67.84 8.69,73.51" fill="#220b10" stroke="#14070a" stroke-width="2.4000000000000004" stroke-linejoin="round" vector-effect="non-scaling-stroke"/><polygon points="8.69,73.51 7.58,67.84 7.60,58.38 10.05,58.10 10.85,67.47 11.61,73.18" fill="#220b10" opacity="0.9"/><polygon points="14.06,57.72 13.96,52.31 12.37,43.61 6.73,44.12 6.72,52.96 7.60,58.30" fill="#220b10" stroke="#14070a" stroke-width="2.4000000000000004" stroke-linejoin="round" vector-effect="non-scaling-stroke"/><polygon points="7.60,58.30 6.72,52.96 6.73,44.12 8.87,43.93 9.47,52.71 10.05,58.08" fill="#220b10" opacity="0.9"/><polygon points="12.30,43.62 13.56,40.63 12.58,36.02 5.16,36.69 5.02,41.40 6.80,44.12" fill="#6d6369" stroke="#14070a" stroke-width="2.4000000000000004" stroke-linejoin="round" vector-effect="non-scaling-stroke"/><polygon points="5.93,46.57 6.39,38.98 3.88,26.69 -5.22,27.00 -6.90,39.42 -5.93,46.97" fill="#220b10" stroke="#14070a" stroke-width="2.4000000000000004" stroke-linejoin="round" vector-effect="non-scaling-stroke"/><polygon points="-5.93,46.97 -6.90,39.42 -5.22,27.00 -1.76,26.88 -1.85,39.25 -1.42,46.82" fill="#220b10" opacity="0.9"/><polygon points="3.88,26.80 4.34,19.21 2.83,6.86 -4.62,6.94 -5.86,19.32 -5.22,26.90" fill="#220b10" stroke="#14070a" stroke-width="2.4000000000000004" stroke-linejoin="round" vector-effect="non-scaling-stroke"/><polygon points="-5.22,26.90 -5.86,19.32 -4.62,6.94 -1.79,6.91 -1.98,19.28 -1.76,26.86" fill="#220b10" opacity="0.9"/><polygon points="-3.45,10.69 1.94,10.28 1.79,4.76 6.88,1.60 7.25,-0.64 -4.61,0.26 -4.40,5.23" fill="#100a14" stroke="#14070a" stroke-width="2.4000000000000004" stroke-linejoin="round" vector-effect="non-scaling-stroke"/><polygon points="-3.45,10.69 -4.40,5.23 -4.61,0.26 -1.21,0.26 -2.20,6.43 -1.85,10.69" fill="#0b060f" opacity="0.9"/><polygon points="-3.42,13.46 2.33,13.02 2.08,8.61 -3.84,9.06" fill="#cfc7cb" stroke="#14070a" stroke-width="1.7600000000000002" stroke-linejoin="round" vector-effect="non-scaling-stroke"/><polygon points="-5.67,76.40 -10.10,77.43 -14.06,60.28 -9.63,59.26" fill="#220b10" stroke="#14070a" stroke-width="2.08" stroke-linejoin="round" vector-effect="non-scaling-stroke"/><polygon points="-7.11,74.07 -9.83,74.70 -10.15,73.33 -7.42,72.70" fill="#d8705f" stroke="#14070a" stroke-width="1.2800000000000002" stroke-linejoin="round" vector-effect="non-scaling-stroke"/><polygon points="-7.92,70.56 -10.64,71.19 -10.96,69.83 -8.23,69.20" fill="#d8705f" stroke="#14070a" stroke-width="1.2800000000000002" stroke-linejoin="round" vector-effect="non-scaling-stroke"/><polygon points="-8.73,67.05 -11.45,67.68 -11.77,66.32 -9.04,65.69" fill="#d8705f" stroke="#14070a" stroke-width="1.2800000000000002" stroke-linejoin="round" vector-effect="non-scaling-stroke"/><polygon points="-9.54,63.54 -12.26,64.17 -12.58,62.81 -9.85,62.18" fill="#d8705f" stroke="#14070a" stroke-width="1.2800000000000002" stroke-linejoin="round" vector-effect="non-scaling-stroke"/><polygon points="10.07,40.85 12.88,56.11 17.11,64.37 17.44,71.99 12.98,75.59 0.47,78.48 -5.46,75.74 -7.64,69.06 -8.04,59.92 -11.99,45.94" fill="#3a161c" stroke="#14070a" stroke-width="2.4000000000000004" stroke-linejoin="round" vector-effect="non-scaling-stroke"/><polygon points="-11.99,45.94 -8.04,59.92 -7.64,69.06 -5.46,75.74 0.47,78.48 5.97,77.21 -0.93,74.69 -5.26,68.51 -3.53,58.87 -7.29,44.86" fill="#220b10" opacity="0.9"/><polygon points="-11.99,45.94 10.07,40.85 10.96,45.47 -10.76,50.48" fill="#3a161c"/><polygon points="5.93,46.97 6.90,39.42 5.22,27.00 -3.88,26.69 -6.39,38.98 -5.93,46.57" fill="#3a161c" stroke="#14070a" stroke-width="2.4000000000000004" stroke-linejoin="round" vector-effect="non-scaling-stroke"/><polygon points="-5.93,46.57 -6.39,38.98 -3.88,26.69 -0.42,26.81 -1.34,39.15 -1.42,46.72" fill="#220b10" opacity="0.9"/><polygon points="5.22,26.90 5.86,19.32 4.62,6.94 -2.83,6.86 -4.34,19.21 -3.88,26.80" fill="#3a161c" stroke="#14070a" stroke-width="2.4000000000000004" stroke-linejoin="round" vector-effect="non-scaling-stroke"/><polygon points="-3.88,26.80 -4.34,19.21 -2.83,6.86 0.00,6.89 -0.47,19.25 -0.42,26.83" fill="#220b10" opacity="0.9"/><polygon points="-2.21,10.26 3.19,10.67 3.87,5.19 9.39,2.84 10.09,0.68 -1.76,-0.22 -2.32,4.72" fill="#220b10" stroke="#14070a" stroke-width="2.4000000000000004" stroke-linejoin="round" vector-effect="non-scaling-stroke"/><polygon points="-2.21,10.26 -2.32,4.72 -1.76,-0.22 1.64,-0.22 -0.12,5.92 -0.61,10.26" fill="#0b060f" opacity="0.9"/><polygon points="-2.60,13.00 3.15,13.44 3.58,9.04 -2.35,8.59" fill="#cfc7cb" stroke="#14070a" stroke-width="1.7600000000000002" stroke-linejoin="round" vector-effect="non-scaling-stroke"/><polygon points="16.59,70.65 15.82,59.54 12.21,50.11 -10.02,55.24 -7.55,69.04 -5.46,75.74" fill="url(#mail)" opacity="0.55"/><polygon points="-9.79,56.21 -12.14,41.40 -7.36,42.12 -3.04,39.92 1.64,39.97 6.02,38.16 10.63,37.82 15.03,36.11 12.94,50.97" fill="#8c8187" stroke="#14070a" stroke-width="2.4000000000000004" stroke-linejoin="round" vector-effect="non-scaling-stroke"/><polygon points="-9.79,56.21 -12.14,41.40 15.03,36.11 12.94,50.97" fill="url(#mail)" opacity="0.7"/><polygon points="11.64,73.23 13.52,72.80 9.27,52.84 7.39,53.27" fill="#cfc7cb" stroke="#14070a" stroke-width="1.6" stroke-linejoin="round" vector-effect="non-scaling-stroke"/><polygon points="10.09,70.10 13.77,69.25 12.56,63.99 8.88,64.84" fill="#220b10" stroke="#14070a" stroke-width="2.08" stroke-linejoin="round" vector-effect="non-scaling-stroke"/><polygon points="10.90,68.47 12.78,68.04 12.19,65.51 10.32,65.94" fill="#f0b4a8" stroke="#14070a" stroke-width="1.4400000000000002" stroke-linejoin="round" vector-effect="non-scaling-stroke"/><polygon points="7.65,58.34 10.90,57.59 10.14,54.28 6.89,55.03" fill="#220b10" stroke="#14070a" stroke-width="1.92" stroke-linejoin="round" vector-effect="non-scaling-stroke"/><polygon points="-7.80,69.51 -5.42,68.96 -6.27,65.25 -8.66,65.80" fill="#220b10" stroke="#14070a" stroke-width="1.92" stroke-linejoin="round" vector-effect="non-scaling-stroke"/><polyline points="-8.19,76.37 2.20,79.10 16.44,72.33 15.87,63.63" fill="none" stroke="#220b10" stroke-width="5.44" stroke-linecap="round" stroke-linejoin="round" vector-effect="non-scaling-stroke"/><polyline points="-8.19,76.37 2.20,79.10 16.44,72.33 15.87,63.63" fill="none" stroke="#d8705f" stroke-width="1.7600000000000002" stroke-linecap="round" stroke-linejoin="round" vector-effect="non-scaling-stroke"/><polyline points="-12.42,61.95 -6.60,52.40 11.22,49.72 13.22,52.95" fill="none" stroke="#220b10" stroke-width="5.44" stroke-linecap="round" stroke-linejoin="round" vector-effect="non-scaling-stroke"/><polyline points="-12.42,61.95 -6.60,52.40 11.22,49.72 13.22,52.95" fill="none" stroke="#d8705f" stroke-width="1.7600000000000002" stroke-linecap="round" stroke-linejoin="round" vector-effect="non-scaling-stroke"/><polygon points="3.47,77.46 3.54,78.68 5.07,80.03 10.87,77.45 10.88,75.41 10.03,74.54" fill="#221f29" stroke="#14070a" stroke-width="2.4000000000000004" stroke-linejoin="round" vector-effect="non-scaling-stroke"/><polygon points="0.20,82.94 7.03,98.29 23.65,90.89 16.95,75.48" fill="#34313d" stroke="#14070a" stroke-width="2.4000000000000004" stroke-linejoin="round" vector-effect="non-scaling-stroke"/><polygon points="0.20,82.94 7.03,98.29 8.74,97.52 1.90,82.18" fill="#221f29" opacity="0.9"/><polygon points="8.78,94.81 21.02,89.36 21.57,90.59 9.33,96.03" fill="#220b10" stroke="#14070a" stroke-width="1.2800000000000002" stroke-linejoin="round" vector-effect="non-scaling-stroke"/><polygon points="3.94,85.19 8.22,83.28 9.42,86.00 5.15,87.90" fill="#f0b4a8" opacity="0.26"/><polygon points="9.10,85.95 14.39,83.60 15.88,86.95 10.59,89.30" fill="#f0b4a8" opacity="0.26"/><polygon points="15.99,86.52 19.63,84.90 21.40,88.89 17.77,90.51" fill="#f0b4a8" opacity="0.26"/><polygon points="21.12,88.25 23.44,87.21 25.50,91.84 23.18,92.88" fill="#f0b4a8" opacity="0.26"/><polygon points="8.08,85.80 10.93,84.53 11.74,86.34 8.89,87.61" fill="#f0b4a8"/><polygon points="11.52,86.31 15.05,84.74 16.04,86.97 12.52,88.54" fill="#f0b4a8"/><polygon points="16.11,86.68 19.06,85.37 20.24,88.03 17.30,89.34" fill="#f0b4a8"/><polygon points="20.05,87.61 21.60,86.92 22.97,90.00 21.43,90.69" fill="#f0b4a8"/><polygon points="3.45,73.51 4.56,67.84 4.54,58.38 -1.90,57.64 -4.04,66.86 -4.23,72.64" fill="#3a161c" stroke="#14070a" stroke-width="2.4000000000000004" stroke-linejoin="round" vector-effect="non-scaling-stroke"/><polygon points="-4.23,72.64 -4.04,66.86 -1.90,57.64 0.55,57.92 -0.77,67.23 -1.31,72.97" fill="#220b10" opacity="0.9"/><polygon points="4.55,58.30 5.43,52.96 5.42,44.12 -0.22,43.61 -1.81,52.31 -1.91,57.72" fill="#3a161c" stroke="#14070a" stroke-width="2.4000000000000004" stroke-linejoin="round" vector-effect="non-scaling-stroke"/><polygon points="-1.91,57.72 -1.81,52.31 -0.22,43.61 1.92,43.81 0.94,52.56 0.55,57.94" fill="#220b10" opacity="0.9"/><polygon points="5.78,57.70 6.27,55.31 5.95,51.30 -2.02,50.58 -3.06,54.46 -3.01,56.91" fill="#8c8187" stroke="#14070a" stroke-width="1.7600000000000002" stroke-linejoin="round" vector-effect="non-scaling-stroke"/><polygon points="5.78,57.70 6.27,55.31 5.95,51.30 -2.02,50.58 -3.06,54.46 -3.01,56.91" fill="url(#mail)" opacity="0.7"/><polygon points="6.56,50.64 7.01,48.24 6.86,44.25 -1.66,43.48 -2.52,47.38 -2.51,49.82" fill="#cfc7cb" stroke="#14070a" stroke-width="1.92" stroke-linejoin="round" vector-effect="non-scaling-stroke"/><polygon points="5.35,44.12 7.13,41.40 6.99,36.69 -0.43,36.02 -1.41,40.63 -0.15,43.62" fill="#a99fa5" stroke="#14070a" stroke-width="2.4000000000000004" stroke-linejoin="round" vector-effect="non-scaling-stroke"/></g><rect x="0.00" y="478.00" width="512.00" height="34.00" fill="#000" opacity="0.0"/></g><polygon points="30,0 512,0 512,482 482,512 0,512 0,30" fill="none" stroke="#8a3a30" stroke-width="10" stroke-linejoin="miter"/><polygon points="30,0 512,0 512,482 482,512 0,512 0,30" fill="none" stroke="#14101f" stroke-width="2" stroke-linejoin="miter" transform="translate(0 0)"/><rect x="360.00" y="470.00" width="118.00" height="12.00" fill="#d8705f" stroke="#14101f" stroke-width="2"/></svg>