<!-- Origin: procedural face cut-in portrait written by art/concepts/faces/gen.mjs (deterministic, no external images or fonts), Art Director session (Claude, claude-sonnet-5-5), 2026-10-01; prompt record art/prompts/ART-0010-rule-of-cool-art.md -->
<svg xmlns="http://www.w3.org/2000/svg" width="512" height="512" viewBox="0 0 512 512"><defs><clipPath id="fc-Csmirk-smirk"><polygon points="30,0 512,0 512,482 482,512 0,512 0,30"/></clipPath></defs><g clip-path="url(#fc-Csmirk-smirk)"><rect x="0.00" y="0.00" width="512.00" height="512.00" fill="#e8c9c2" /><rect x="300" y="400" width="212" height="112" fill="#f0b4a8"/><rect x="372" y="328" width="140" height="72" fill="#f0b4a8"/><rect x="444" y="256" width="68" height="72" fill="#f0b4a8"/><rect x="20" y="20" width="90" height="90" fill="#f0b4a8"/><rect x="110" y="110" width="60" height="60" fill="#f0b4a8"/><g transform="translate(258.97 1636.97) scale(15 -15)"><polygon points="7.95,73.23 7.76,67.45 5.62,58.23 -0.82,58.96 -0.84,68.43 0.27,74.10" fill="#220b10" stroke="#14070a" stroke-width="2.4000000000000004" stroke-linejoin="round" vector-effect="non-scaling-stroke"/><polygon points="0.27,74.10 -0.84,68.43 -0.82,58.96 1.62,58.69 2.43,68.06 3.18,73.77" fill="#220b10" opacity="0.9"/><polygon points="5.63,58.31 5.53,52.90 3.94,44.20 -1.70,44.71 -1.70,53.55 -0.83,58.89" fill="#220b10" stroke="#14070a" stroke-width="2.4000000000000004" stroke-linejoin="round" vector-effect="non-scaling-stroke"/><polygon points="-0.83,58.89 -1.70,53.55 -1.70,44.71 0.44,44.52 1.04,53.30 1.62,58.67" fill="#220b10" opacity="0.9"/><polygon points="3.87,44.21 5.13,41.22 4.15,36.61 -3.27,37.28 -3.40,41.99 -1.63,44.71" fill="#6d6369" stroke="#14070a" stroke-width="2.4000000000000004" stroke-linejoin="round" vector-effect="non-scaling-stroke"/><polygon points="5.93,46.57 6.39,38.98 3.88,26.69 -5.22,27.00 -6.90,39.42 -5.93,46.97" fill="#220b10" stroke="#14070a" stroke-width="2.4000000000000004" stroke-linejoin="round" vector-effect="non-scaling-stroke"/><polygon points="-5.93,46.97 -6.90,39.42 -5.22,27.00 -1.76,26.88 -1.85,39.25 -1.42,46.82" fill="#220b10" opacity="0.9"/><polygon points="3.88,26.80 4.34,19.21 2.83,6.86 -4.62,6.94 -5.86,19.32 -5.22,26.90" fill="#220b10" stroke="#14070a" stroke-width="2.4000000000000004" stroke-linejoin="round" vector-effect="non-scaling-stroke"/><polygon points="-5.22,26.90 -5.86,19.32 -4.62,6.94 -1.79,6.91 -1.98,19.28 -1.76,26.86" fill="#220b10" opacity="0.9"/><polygon points="-3.45,10.69 1.94,10.28 1.79,4.76 6.88,1.60 7.25,-0.64 -4.61,0.26 -4.40,5.23" fill="#100a14" stroke="#14070a" stroke-width="2.4000000000000004" stroke-linejoin="round" vector-effect="non-scaling-stroke"/><polygon points="-3.45,10.69 -4.40,5.23 -4.61,0.26 -1.21,0.26 -2.20,6.43 -1.85,10.69" fill="#0b060f" opacity="0.9"/><polygon points="-3.42,13.46 2.33,13.02 2.08,8.61 -3.84,9.06" fill="#cfc7cb" stroke="#14070a" stroke-width="1.7600000000000002" stroke-linejoin="round" vector-effect="non-scaling-stroke"/><polygon points="-14.55,73.20 -19.08,72.81 -17.55,55.27 -13.02,55.67" fill="#220b10" stroke="#14070a" stroke-width="2.08" stroke-linejoin="round" vector-effect="non-scaling-stroke"/><polygon points="-15.20,70.54 -17.98,70.29 -17.86,68.90 -15.07,69.14" fill="#d8705f" stroke="#14070a" stroke-width="1.2800000000000002" stroke-linejoin="round" vector-effect="non-scaling-stroke"/><polygon points="-14.88,66.95 -17.67,66.71 -17.55,65.31 -14.76,65.55" fill="#d8705f" stroke="#14070a" stroke-width="1.2800000000000002" stroke-linejoin="round" vector-effect="non-scaling-stroke"/><polygon points="-14.57,63.36 -17.35,63.12 -17.23,61.72 -14.45,61.97" fill="#d8705f" stroke="#14070a" stroke-width="1.2800000000000002" stroke-linejoin="round" vector-effect="non-scaling-stroke"/><polygon points="-14.25,59.78 -17.04,59.53 -16.92,58.14 -14.13,58.38" fill="#d8705f" stroke="#14070a" stroke-width="1.2800000000000002" stroke-linejoin="round" vector-effect="non-scaling-stroke"/><polygon points="11.41,44.25 9.36,59.63 10.84,68.80 8.79,76.15 3.44,78.19 -9.35,77.07 -14.15,72.63 -14.15,65.61 -11.71,56.79 -11.14,42.28" fill="#3a161c" stroke="#14070a" stroke-width="2.4000000000000004" stroke-linejoin="round" vector-effect="non-scaling-stroke"/><polygon points="-11.14,42.28 -11.71,56.79 -14.15,65.61 -14.15,72.63 -9.35,77.07 -3.72,77.56 -9.51,73.04 -11.72,65.82 -7.10,57.19 -6.34,42.70" fill="#220b10" opacity="0.9"/><polygon points="-11.14,42.28 11.41,44.25 10.82,48.92 -11.38,46.98" fill="#3a161c"/><polygon points="5.93,46.97 6.90,39.42 5.22,27.00 -3.88,26.69 -6.39,38.98 -5.93,46.57" fill="#3a161c" stroke="#14070a" stroke-width="2.4000000000000004" stroke-linejoin="round" vector-effect="non-scaling-stroke"/><polygon points="-5.93,46.57 -6.39,38.98 -3.88,26.69 -0.42,26.81 -1.34,39.15 -1.42,46.72" fill="#220b10" opacity="0.9"/><polygon points="5.22,26.90 5.86,19.32 4.62,6.94 -2.83,6.86 -4.34,19.21 -3.88,26.80" fill="#3a161c" stroke="#14070a" stroke-width="2.4000000000000004" stroke-linejoin="round" vector-effect="non-scaling-stroke"/><polygon points="-3.88,26.80 -4.34,19.21 -2.83,6.86 0.00,6.89 -0.47,19.25 -0.42,26.83" fill="#220b10" opacity="0.9"/><polygon points="-2.21,10.26 3.19,10.67 3.87,5.19 9.39,2.84 10.09,0.68 -1.76,-0.22 -2.32,4.72" fill="#220b10" stroke="#14070a" stroke-width="2.4000000000000004" stroke-linejoin="round" vector-effect="non-scaling-stroke"/><polygon points="-2.21,10.26 -2.32,4.72 -1.76,-0.22 1.64,-0.22 -0.12,5.92 -0.61,10.26" fill="#0b060f" opacity="0.9"/><polygon points="-2.60,13.00 3.15,13.44 3.58,9.04 -2.35,8.59" fill="#cfc7cb" stroke="#14070a" stroke-width="1.7600000000000002" stroke-linejoin="round" vector-effect="non-scaling-stroke"/><polygon points="8.40,74.61 11.10,63.80 10.58,53.72 -12.15,51.73 -14.06,65.62 -14.15,72.63" fill="url(#mail)" opacity="0.55"/><polygon points="-12.23,52.73 -14.58,37.91 -9.71,39.84 -5.31,38.86 -0.55,40.12 3.92,39.53 8.62,40.40 13.10,39.91 11.01,54.76" fill="#8c8187" stroke="#14070a" stroke-width="2.4000000000000004" stroke-linejoin="round" vector-effect="non-scaling-stroke"/><polygon points="-12.23,52.73 -14.58,37.91 13.10,39.91 11.01,54.76" fill="url(#mail)" opacity="0.7"/><polygon points="2.90,75.53 4.81,75.70 6.94,55.41 5.02,55.24" fill="#cfc7cb" stroke="#14070a" stroke-width="1.6" stroke-linejoin="round" vector-effect="non-scaling-stroke"/><polygon points="2.39,72.07 6.15,72.40 6.63,67.02 2.86,66.69" fill="#220b10" stroke="#14070a" stroke-width="2.08" stroke-linejoin="round" vector-effect="non-scaling-stroke"/><polygon points="3.66,70.78 5.58,70.95 5.81,68.36 3.89,68.19" fill="#f0b4a8" stroke="#14070a" stroke-width="1.4400000000000002" stroke-linejoin="round" vector-effect="non-scaling-stroke"/><polygon points="3.70,60.14 7.03,60.43 7.32,57.05 4.00,56.76" fill="#220b10" stroke="#14070a" stroke-width="1.92" stroke-linejoin="round" vector-effect="non-scaling-stroke"/><polygon points="-14.45,65.98 -12.01,66.20 -11.68,62.41 -14.11,62.20" fill="#220b10" stroke="#14070a" stroke-width="1.92" stroke-linejoin="round" vector-effect="non-scaling-stroke"/><polyline points="-16.94,72.39 -7.90,78.20 7.74,76.16 9.88,67.71" fill="none" stroke="#220b10" stroke-width="5.44" stroke-linecap="round" stroke-linejoin="round" vector-effect="non-scaling-stroke"/><polyline points="-16.94,72.39 -7.90,78.20 7.74,76.16 9.88,67.71" fill="none" stroke="#d8705f" stroke-width="1.7600000000000002" stroke-linecap="round" stroke-linejoin="round" vector-effect="non-scaling-stroke"/><polyline points="-16.50,57.37 -8.02,50.08 9.76,53.04 10.66,56.74" fill="none" stroke="#220b10" stroke-width="5.44" stroke-linecap="round" stroke-linejoin="round" vector-effect="non-scaling-stroke"/><polyline points="-16.50,57.37 -8.02,50.08 9.76,53.04 10.66,56.74" fill="none" stroke="#d8705f" stroke-width="1.7600000000000002" stroke-linecap="round" stroke-linejoin="round" vector-effect="non-scaling-stroke"/><polygon points="-6.03,75.55 -6.79,76.50 -6.56,78.53 -0.52,80.49 0.85,78.98 0.80,77.76" fill="#221f29" stroke="#14070a" stroke-width="2.4000000000000004" stroke-linejoin="round" vector-effect="non-scaling-stroke"/><polygon points="-12.13,77.43 -17.32,93.40 -0.02,99.03 5.31,83.09" fill="#34313d" stroke="#14070a" stroke-width="2.4000000000000004" stroke-linejoin="round" vector-effect="non-scaling-stroke"/><polygon points="-12.13,77.43 -17.32,93.40 -15.54,93.98 -10.35,78.00" fill="#221f29" opacity="0.9"/><polygon points="-13.69,91.99 -0.95,96.13 -1.36,97.41 -14.10,93.27" fill="#220b10" stroke="#14070a" stroke-width="1.2800000000000002" stroke-linejoin="round" vector-effect="non-scaling-stroke"/><polygon points="-6.12,84.42 -3.08,86.15 -4.81,87.87 -7.85,86.14" fill="#f0b4a8" opacity="0.26"/><polygon points="-4.89,87.67 -1.13,89.80 -3.27,91.93 -7.02,89.79" fill="#f0b4a8" opacity="0.26"/><polygon points="-2.89,91.83 -0.15,93.81 -1.63,96.69 -5.43,94.36" fill="#f0b4a8" opacity="0.26"/><polygon points="-1.40,96.23 -0.00,97.95 -1.72,101.29 -3.50,99.44" fill="#f0b4a8" opacity="0.26"/><polygon points="-5.13,87.02 -3.10,88.18 -4.26,89.32 -6.28,88.17" fill="#f0b4a8"/><polygon points="-4.31,89.19 -1.81,90.61 -3.23,92.03 -5.73,90.61" fill="#f0b4a8"/><polygon points="-2.98,91.97 -0.61,93.46 -1.69,95.35 -4.67,93.65" fill="#f0b4a8"/><polygon points="-1.44,95.07 -0.51,96.22 -1.66,98.44 -3.39,97.04" fill="#f0b4a8"/><polygon points="-4.97,74.10 -3.86,68.43 -3.88,58.96 -10.33,58.23 -12.46,67.45 -12.65,73.23" fill="#3a161c" stroke="#14070a" stroke-width="2.4000000000000004" stroke-linejoin="round" vector-effect="non-scaling-stroke"/><polygon points="-12.65,73.23 -12.46,67.45 -10.33,58.23 -7.88,58.51 -9.20,67.82 -9.73,73.56" fill="#220b10" opacity="0.9"/><polygon points="-3.87,58.89 -3.00,53.55 -3.01,44.71 -8.64,44.20 -10.24,52.90 -10.33,58.31" fill="#3a161c" stroke="#14070a" stroke-width="2.4000000000000004" stroke-linejoin="round" vector-effect="non-scaling-stroke"/><polygon points="-10.33,58.31 -10.24,52.90 -8.64,44.20 -6.50,44.40 -7.49,53.15 -7.88,58.53" fill="#220b10" opacity="0.9"/><polygon points="-2.64,58.29 -2.16,55.90 -2.48,51.89 -10.45,51.17 -11.48,55.05 -11.44,57.49" fill="#8c8187" stroke="#14070a" stroke-width="1.7600000000000002" stroke-linejoin="round" vector-effect="non-scaling-stroke"/><polygon points="-2.64,58.29 -2.16,55.90 -2.48,51.89 -10.45,51.17 -11.48,55.05 -11.44,57.49" fill="url(#mail)" opacity="0.7"/><polygon points="-1.87,51.23 -1.42,48.83 -1.57,44.84 -10.09,44.07 -10.95,47.97 -10.94,50.41" fill="#cfc7cb" stroke="#14070a" stroke-width="1.92" stroke-linejoin="round" vector-effect="non-scaling-stroke"/><polygon points="-3.08,44.71 -1.30,41.99 -1.44,37.28 -8.86,36.61 -9.84,41.22 -8.58,44.21" fill="#a99fa5" stroke="#14070a" stroke-width="2.4000000000000004" stroke-linejoin="round" vector-effect="non-scaling-stroke"/></g><rect x="0.00" y="478.00" width="512.00" height="34.00" fill="#000" opacity="0.0"/></g><polygon points="30,0 512,0 512,482 482,512 0,512 0,30" fill="none" stroke="#8a3a30" stroke-width="10" stroke-linejoin="miter"/><polygon points="30,0 512,0 512,482 482,512 0,512 0,30" fill="none" stroke="#14101f" stroke-width="2" stroke-linejoin="miter" transform="translate(0 0)"/><rect x="360.00" y="470.00" width="118.00" height="12.00" fill="#d8705f" stroke="#14101f" stroke-width="2"/></svg>