<!-- Origin: procedural face cut-in portrait written by art/concepts/faces/gen.mjs (deterministic, no external images or fonts), Art Director session (Claude, claude-sonnet-5-5), 2026-10-01; prompt record art/prompts/ART-0010-rule-of-cool-art.md -->
<svg xmlns="http://www.w3.org/2000/svg" width="512" height="512" viewBox="0 0 512 512"><defs><clipPath id="fc-Eneutral-neutral"><polygon points="30,0 512,0 512,482 482,512 0,512 0,30"/></clipPath></defs><g clip-path="url(#fc-Eneutral-neutral)"><rect x="0.00" y="0.00" width="512.00" height="512.00" fill="#4a5a2a" /><polygon points="0,512 260,120 380,512" fill="#5b6d35"/><polygon points="512,512 512,150 330,512" fill="#5b6d35"/><polygon points="0,0 170,0 0,200" fill="#5b6d35"/><g transform="translate(203.69 1714.63) scale(15 -15)"><polygon points="7.92,78.50 7.56,72.74 5.83,63.47 1.81,63.93 2.20,73.35 3.14,79.04" fill="#191d11" stroke="#0f1206" stroke-width="2.4000000000000004" stroke-linejoin="round" vector-effect="non-scaling-stroke"/><polygon points="3.14,79.04 2.20,73.35 1.81,63.93 3.34,63.75 4.24,73.11 4.96,78.83" fill="#191d11" opacity="0.9"/><polygon points="5.83,63.52 5.59,58.12 4.30,49.40 0.79,49.72 1.08,58.53 1.81,63.88" fill="#191d11" stroke="#0f1206" stroke-width="2.4000000000000004" stroke-linejoin="round" vector-effect="non-scaling-stroke"/><polygon points="1.81,63.88 1.08,58.53 0.79,49.72 2.12,49.60 2.80,58.38 3.34,63.74" fill="#191d11" opacity="0.9"/><polygon points="4.26,49.40 5.04,47.54 4.43,44.67 -0.19,45.08 -0.28,48.02 0.83,49.71" fill="#9b6c4c" stroke="#0f1206" stroke-width="2.4000000000000004" stroke-linejoin="round" vector-effect="non-scaling-stroke"/><polygon points="3.70,49.50 3.85,40.88 2.07,26.88 -3.60,27.07 -4.43,41.16 -3.70,49.75" fill="#191d11" stroke="#0f1206" stroke-width="2.4000000000000004" stroke-linejoin="round" vector-effect="non-scaling-stroke"/><polygon points="-3.70,49.75 -4.43,41.16 -3.60,27.07 -1.44,27.00 -1.28,41.05 -0.89,49.66" fill="#191d11" opacity="0.9"/><polygon points="2.07,26.94 2.32,18.32 1.30,4.27 -3.34,4.33 -4.04,18.40 -3.60,27.01" fill="#191d11" stroke="#0f1206" stroke-width="2.4000000000000004" stroke-linejoin="round" vector-effect="non-scaling-stroke"/><polygon points="-3.60,27.01 -4.04,18.40 -3.34,4.33 -1.57,4.31 -1.62,18.37 -1.44,26.98" fill="#191d11" opacity="0.9"/><polygon points="-2.66,6.63 0.70,6.45 0.68,3.00 3.91,1.11 4.16,-0.28 -3.23,0.11 -3.18,3.21" fill="#100a14" stroke="#0f1206" stroke-width="2.4000000000000004" stroke-linejoin="round" vector-effect="non-scaling-stroke"/><polygon points="-2.66,6.63 -3.18,3.21 -3.23,0.11 0.17,0.11 -0.98,4.41 -1.06,6.63" fill="#0b060f" opacity="0.9"/><polygon points="-2.68,8.35 0.90,8.16 0.81,5.41 -2.89,5.61" fill="#e0deb8" stroke="#0f1206" stroke-width="1.7600000000000002" stroke-linejoin="round" vector-effect="non-scaling-stroke"/><polygon points="-4.23,82.73 -8.45,90.12 -12.26,86.15 -11.24,80.28" fill="#2a2f1e" stroke="#0f1206" stroke-width="2.4000000000000004" stroke-linejoin="round" vector-effect="non-scaling-stroke"/><polyline points="-4.92,83.30 -8.47,89.69 -12.00,86.35" fill="none" stroke="#b8c96a" stroke-width="2.5600000000000005" stroke-linecap="round" stroke-linejoin="round" vector-effect="non-scaling-stroke"/><polygon points="-7.21,80.14 -60.06,40.60 -29.61,-1.86 -8.41,56.40" fill="#2a2f1e" stroke="#0f1206" stroke-width="2.4000000000000004" stroke-linejoin="round" vector-effect="non-scaling-stroke"/><polygon points="-7.21,80.14 -33.64,60.37 -19.01,27.27 -8.41,56.40" fill="#191d11" opacity="0.9"/><polygon points="-7.21,80.14 -25.18,66.69 -15.62,36.59 -8.41,56.40" fill="#b8c96a" opacity="0.9"/><polygon points="-60.06,40.60 -63.36,34.22 -56.25,35.29" fill="#e0deb8" stroke="#0f1206" stroke-width="1.6" stroke-linejoin="round" vector-effect="non-scaling-stroke"/><polygon points="-56.25,35.29 -61.34,27.63 -52.45,29.99" fill="#f4f3dc" stroke="#0f1206" stroke-width="1.6" stroke-linejoin="round" vector-effect="non-scaling-stroke"/><polygon points="-52.45,29.99 -55.75,23.60 -48.64,24.68" fill="#e0deb8" stroke="#0f1206" stroke-width="1.6" stroke-linejoin="round" vector-effect="non-scaling-stroke"/><polygon points="-48.64,24.68 -53.73,17.01 -44.84,19.37" fill="#f4f3dc" stroke="#0f1206" stroke-width="1.6" stroke-linejoin="round" vector-effect="non-scaling-stroke"/><polygon points="-44.84,19.37 -48.13,12.99 -41.03,14.06" fill="#e0deb8" stroke="#0f1206" stroke-width="1.6" stroke-linejoin="round" vector-effect="non-scaling-stroke"/><polygon points="-41.03,14.06 -46.12,6.40 -37.22,8.76" fill="#f4f3dc" stroke="#0f1206" stroke-width="1.6" stroke-linejoin="round" vector-effect="non-scaling-stroke"/><polygon points="-37.22,8.76 -40.52,2.37 -33.42,3.45" fill="#e0deb8" stroke="#0f1206" stroke-width="1.6" stroke-linejoin="round" vector-effect="non-scaling-stroke"/><polygon points="-33.42,3.45 -38.50,-4.22 -29.61,-1.86" fill="#f4f3dc" stroke="#0f1206" stroke-width="1.6" stroke-linejoin="round" vector-effect="non-scaling-stroke"/><polygon points="7.65,45.58 7.74,62.32 9.67,71.98 8.98,80.11 5.47,82.93 -3.49,83.25 -7.25,79.06 -7.94,71.52 -7.12,61.76 -8.15,46.13" fill="#2a2f1e" stroke="#0f1206" stroke-width="2.4000000000000004" stroke-linejoin="round" vector-effect="non-scaling-stroke"/><polygon points="-8.15,46.13 -7.12,61.76 -7.94,71.52 -7.25,79.06 -3.49,83.25 0.45,83.11 -4.00,78.94 -6.24,71.46 -3.89,61.65 -4.79,46.01" fill="#191d11" opacity="0.9"/><polygon points="-8.15,46.13 7.65,45.58 7.70,50.65 -7.86,51.20" fill="#2a2f1e"/><polygon points="3.70,49.75 4.43,41.16 3.60,27.07 -2.07,26.88 -3.85,40.88 -3.70,49.50" fill="#2a2f1e" stroke="#0f1206" stroke-width="2.4000000000000004" stroke-linejoin="round" vector-effect="non-scaling-stroke"/><polygon points="-3.70,49.50 -3.85,40.88 -2.07,26.88 0.08,26.95 -0.70,40.99 -0.89,49.60" fill="#191d11" opacity="0.9"/><polygon points="3.60,27.01 4.04,18.40 3.34,4.33 -1.30,4.27 -2.32,18.32 -2.07,26.94" fill="#2a2f1e" stroke="#0f1206" stroke-width="2.4000000000000004" stroke-linejoin="round" vector-effect="non-scaling-stroke"/><polygon points="-2.07,26.94 -2.32,18.32 -1.30,4.27 0.46,4.29 0.10,18.35 0.08,26.97" fill="#191d11" opacity="0.9"/><polygon points="-0.87,6.44 2.50,6.62 2.85,3.19 6.25,1.65 6.66,0.29 -0.74,-0.10 -1.02,2.99" fill="#191d11" stroke="#0f1206" stroke-width="2.4000000000000004" stroke-linejoin="round" vector-effect="non-scaling-stroke"/><polygon points="-0.87,6.44 -1.02,2.99 -0.74,-0.10 2.66,-0.10 1.18,4.19 0.73,6.44" fill="#0b060f" opacity="0.9"/><polygon points="-1.07,8.15 2.52,8.34 2.72,5.60 -0.98,5.40" fill="#e0deb8" stroke="#0f1206" stroke-width="1.7600000000000002" stroke-linejoin="round" vector-effect="non-scaling-stroke"/><polygon points="8.20,57.98 9.36,66.59 9.79,71.98 9.05,78.70 -4.31,80.25 -7.62,79.07 -8.25,71.53 -8.05,59.63 -7.97,58.55" fill="#3a4029" stroke="#0f1206" stroke-width="2.4000000000000004" stroke-linejoin="round" vector-effect="non-scaling-stroke"/><polygon points="3.19,58.70 6.83,22.88 16.24,21.32 8.47,58.52" fill="#3a4029" stroke="#0f1206" stroke-width="2.4000000000000004" stroke-linejoin="round" vector-effect="non-scaling-stroke"/><polyline points="6.83,22.88 16.24,21.32" fill="none" stroke="#e0deb8" stroke-width="2.5600000000000005" stroke-linecap="round" stroke-linejoin="round" vector-effect="non-scaling-stroke"/><polygon points="-8.35,58.13 8.43,57.54 8.44,61.22 -8.34,61.80" fill="#e0deb8" stroke="#0f1206" stroke-width="1.7600000000000002" stroke-linejoin="round" vector-effect="non-scaling-stroke"/><polygon points="8.54,60.57 9.64,60.53 9.09,51.90 8.00,52.16" fill="#b8c96a" stroke="#0f1206" stroke-width="1.6" stroke-linejoin="round" vector-effect="non-scaling-stroke"/><polygon points="-1.10,82.08 -1.33,83.23 -0.74,85.07 3.21,84.93 3.67,83.06 3.37,81.93" fill="#bdb692" stroke="#0f1206" stroke-width="2.4000000000000004" stroke-linejoin="round" vector-effect="non-scaling-stroke"/><polygon points="-5.17,86.21 -5.72,92.11 -5.23,98.96 -2.02,105.22 5.91,105.43 8.57,99.46 9.11,93.16 8.14,87.12 4.01,84.91" fill="#e6e0c4" stroke="#0f1206" stroke-width="2.4000000000000004" stroke-linejoin="round" vector-effect="non-scaling-stroke"/><polygon points="-5.17,86.21 -5.72,92.11 -5.23,98.96 -2.02,105.22 0.36,105.23 -4.26,97.94 -4.47,92.07 -1.92,85.51" fill="#bdb692" opacity="0.9"/><polygon points="5.36,93.00 7.41,93.95 8.07,92.90 8.04,92.02 7.38,93.07 5.33,92.12" fill="#b8c96a"/><polygon points="5.73,94.65 7.93,96.07 8.82,94.55 8.78,93.66 7.90,95.18 5.70,93.77" fill="#b8c96a"/><polygon points="4.10,96.57 7.82,98.48 9.03,96.40 8.99,95.33 7.78,97.41 4.06,95.50" fill="#b8c96a"/><polygon points="9.38,97.47 8.65,101.61 3.08,103.77 -4.73,102.47 -6.53,98.02 -6.48,92.14 -5.29,93.66 -4.56,96.58 -0.31,97.41 7.62,97.53" fill="#1e2413" stroke="#0f1206" stroke-width="2.4000000000000004" stroke-linejoin="round" vector-effect="non-scaling-stroke"/><polygon points="0.20,107.37 -1.38,109.26 -3.81,109.69 -5.94,108.46 -6.78,106.14 -5.94,103.83 -3.81,102.60 -1.38,103.03 0.20,104.91" fill="#1e2413" stroke="#0f1206" stroke-width="2.4000000000000004" stroke-linejoin="round" vector-effect="non-scaling-stroke"/><polygon points="-6.36,80.11 -6.13,86.58 7.38,86.33 8.61,80.23" fill="#2a2f1e" stroke="#0f1206" stroke-width="1.92" stroke-linejoin="round" vector-effect="non-scaling-stroke"/><polygon points="-5.98,99.18 9.69,99.03 9.74,100.59 -5.92,100.85" fill="#f4f3dc" stroke="#0f1206" stroke-width="1.6" stroke-linejoin="round" vector-effect="non-scaling-stroke"/><polygon points="-1.10,79.04 -0.17,73.35 0.22,63.93 -3.79,63.47 -5.53,72.74 -5.89,78.50" fill="#2a2f1e" stroke="#0f1206" stroke-width="2.4000000000000004" stroke-linejoin="round" vector-effect="non-scaling-stroke"/><polygon points="-5.89,78.50 -5.53,72.74 -3.79,63.47 -2.27,63.65 -3.49,72.97 -4.07,78.70" fill="#191d11" opacity="0.9"/><polygon points="0.23,63.88 0.95,58.53 1.25,49.72 -2.26,49.40 -3.56,58.12 -3.80,63.52" fill="#2a2f1e" stroke="#0f1206" stroke-width="2.4000000000000004" stroke-linejoin="round" vector-effect="non-scaling-stroke"/><polygon points="-3.80,63.52 -3.56,58.12 -2.26,49.40 -0.93,49.52 -1.84,58.28 -2.27,63.66" fill="#191d11" opacity="0.9"/><polygon points="1.12,55.41 1.36,53.26 1.38,49.73 -2.39,49.39 -3.01,52.87 -3.16,55.02" fill="#b8c96a" stroke="#0f1206" stroke-width="1.6" stroke-linejoin="round" vector-effect="non-scaling-stroke"/><polygon points="1.20,49.71 2.31,48.02 2.23,45.08 -2.40,44.67 -3.01,47.54 -2.22,49.40" fill="#d9a67f" stroke="#0f1206" stroke-width="2.4000000000000004" stroke-linejoin="round" vector-effect="non-scaling-stroke"/></g><rect x="0.00" y="478.00" width="512.00" height="34.00" fill="#000" opacity="0.0"/></g><polygon points="30,0 512,0 512,482 482,512 0,512 0,30" fill="none" stroke="#dfe8a8" stroke-width="10" stroke-linejoin="miter"/><polygon points="30,0 512,0 512,482 482,512 0,512 0,30" fill="none" stroke="#14101f" stroke-width="2" stroke-linejoin="miter" transform="translate(0 0)"/><rect x="360.00" y="470.00" width="118.00" height="12.00" fill="#b8c96a" stroke="#14101f" stroke-width="2"/></svg>