<!-- Origin: procedural face cut-in portrait written by art/concepts/faces/gen.mjs (deterministic, no external images or fonts), Art Director session (Claude, claude-sonnet-5-5), 2026-10-01; prompt record art/prompts/ART-0010-rule-of-cool-art.md -->
<svg xmlns="http://www.w3.org/2000/svg" width="512" height="512" viewBox="0 0 512 512"><defs><clipPath id="fc-Esmirk-smirk"><polygon points="30,0 512,0 512,482 482,512 0,512 0,30"/></clipPath></defs><g clip-path="url(#fc-Esmirk-smirk)"><rect x="0.00" y="0.00" width="512.00" height="512.00" fill="#4a5a2a" /><polygon points="0,512 260,120 380,512" fill="#5b6d35"/><polygon points="512,512 512,150 330,512" fill="#5b6d35"/><polygon points="0,0 170,0 0,200" fill="#5b6d35"/><g transform="translate(342.46 1718.59) scale(15 -15)"><polygon points="4.36,78.40 4.00,72.65 2.27,63.38 -1.75,63.83 -1.36,73.25 -0.42,78.95" fill="#191d11" stroke="#0f1206" stroke-width="2.4000000000000004" stroke-linejoin="round" vector-effect="non-scaling-stroke"/><polygon points="-0.42,78.95 -1.36,73.25 -1.75,63.83 -0.22,63.66 0.68,73.02 1.40,78.74" fill="#191d11" opacity="0.9"/><polygon points="2.28,63.43 2.03,58.03 0.74,49.31 -2.77,49.62 -2.48,58.44 -1.75,63.79" fill="#191d11" stroke="#0f1206" stroke-width="2.4000000000000004" stroke-linejoin="round" vector-effect="non-scaling-stroke"/><polygon points="-1.75,63.79 -2.48,58.44 -2.77,49.62 -1.44,49.50 -0.76,58.28 -0.22,63.65" fill="#191d11" opacity="0.9"/><polygon points="0.70,49.31 1.48,47.45 0.87,44.57 -3.75,44.99 -3.83,47.93 -2.73,49.62" fill="#9b6c4c" stroke="#0f1206" stroke-width="2.4000000000000004" stroke-linejoin="round" vector-effect="non-scaling-stroke"/><polygon points="3.70,49.50 3.85,40.88 2.07,26.88 -3.60,27.07 -4.43,41.16 -3.70,49.75" fill="#191d11" stroke="#0f1206" stroke-width="2.4000000000000004" stroke-linejoin="round" vector-effect="non-scaling-stroke"/><polygon points="-3.70,49.75 -4.43,41.16 -3.60,27.07 -1.44,27.00 -1.28,41.05 -0.89,49.66" fill="#191d11" opacity="0.9"/><polygon points="2.07,26.94 2.32,18.32 1.30,4.27 -3.34,4.33 -4.04,18.40 -3.60,27.01" fill="#191d11" stroke="#0f1206" stroke-width="2.4000000000000004" stroke-linejoin="round" vector-effect="non-scaling-stroke"/><polygon points="-3.60,27.01 -4.04,18.40 -3.34,4.33 -1.57,4.31 -1.62,18.37 -1.44,26.98" fill="#191d11" opacity="0.9"/><polygon points="-2.66,6.63 0.70,6.45 0.68,3.00 3.91,1.11 4.16,-0.28 -3.23,0.11 -3.18,3.21" fill="#100a14" stroke="#0f1206" stroke-width="2.4000000000000004" stroke-linejoin="round" vector-effect="non-scaling-stroke"/><polygon points="-2.66,6.63 -3.18,3.21 -3.23,0.11 0.17,0.11 -0.98,4.41 -1.06,6.63" fill="#0b060f" opacity="0.9"/><polygon points="-2.68,8.35 0.90,8.16 0.81,5.41 -2.89,5.61" fill="#e0deb8" stroke="#0f1206" stroke-width="1.7600000000000002" stroke-linejoin="round" vector-effect="non-scaling-stroke"/><polygon points="-8.23,81.97 -13.32,88.79 -16.62,84.38 -14.89,78.68" fill="#2a2f1e" stroke="#0f1206" stroke-width="2.4000000000000004" stroke-linejoin="round" vector-effect="non-scaling-stroke"/><polyline points="-8.99,82.45 -13.29,88.36 -16.39,84.62" fill="none" stroke="#b8c96a" stroke-width="2.5600000000000005" stroke-linecap="round" stroke-linejoin="round" vector-effect="non-scaling-stroke"/><polygon points="-10.88,79.03 -63.72,39.49 -30.38,-2.93 -9.17,55.33" fill="#2a2f1e" stroke="#0f1206" stroke-width="2.4000000000000004" stroke-linejoin="round" vector-effect="non-scaling-stroke"/><polygon points="-10.88,79.03 -37.30,59.26 -19.77,26.20 -9.17,55.33" fill="#191d11" opacity="0.9"/><polygon points="-10.88,79.03 -28.84,65.59 -16.38,35.52 -9.17,55.33" fill="#b8c96a" opacity="0.9"/><polygon points="-63.72,39.49 -66.67,32.89 -59.56,34.19" fill="#e0deb8" stroke="#0f1206" stroke-width="1.6" stroke-linejoin="round" vector-effect="non-scaling-stroke"/><polygon points="-59.56,34.19 -64.23,26.22 -55.39,28.89" fill="#f4f3dc" stroke="#0f1206" stroke-width="1.6" stroke-linejoin="round" vector-effect="non-scaling-stroke"/><polygon points="-55.39,28.89 -58.33,22.28 -51.22,23.58" fill="#e0deb8" stroke="#0f1206" stroke-width="1.6" stroke-linejoin="round" vector-effect="non-scaling-stroke"/><polygon points="-51.22,23.58 -55.90,15.62 -47.05,18.28" fill="#f4f3dc" stroke="#0f1206" stroke-width="1.6" stroke-linejoin="round" vector-effect="non-scaling-stroke"/><polygon points="-47.05,18.28 -50.00,11.67 -42.88,12.98" fill="#e0deb8" stroke="#0f1206" stroke-width="1.6" stroke-linejoin="round" vector-effect="non-scaling-stroke"/><polygon points="-42.88,12.98 -47.56,5.01 -38.71,7.67" fill="#f4f3dc" stroke="#0f1206" stroke-width="1.6" stroke-linejoin="round" vector-effect="non-scaling-stroke"/><polygon points="-38.71,7.67 -41.66,1.07 -34.54,2.37" fill="#e0deb8" stroke="#0f1206" stroke-width="1.6" stroke-linejoin="round" vector-effect="non-scaling-stroke"/><polygon points="-34.54,2.37 -39.22,-5.60 -30.38,-2.93" fill="#f4f3dc" stroke="#0f1206" stroke-width="1.6" stroke-linejoin="round" vector-effect="non-scaling-stroke"/><polygon points="8.08,46.54 6.14,63.17 6.87,72.99 5.19,80.98 1.37,83.35 -7.56,82.57 -10.78,77.95 -10.55,70.39 -8.55,60.80 -7.67,45.16" fill="#2a2f1e" stroke="#0f1206" stroke-width="2.4000000000000004" stroke-linejoin="round" vector-effect="non-scaling-stroke"/><polygon points="-7.67,45.16 -8.55,60.80 -10.55,70.39 -10.78,77.95 -7.56,82.57 -3.63,82.92 -7.54,78.24 -8.85,70.53 -5.32,61.09 -4.32,45.45" fill="#191d11" opacity="0.9"/><polygon points="-7.67,45.16 8.08,46.54 7.52,51.58 -7.99,50.23" fill="#2a2f1e"/><polygon points="3.70,49.75 4.43,41.16 3.60,27.07 -2.07,26.88 -3.85,40.88 -3.70,49.50" fill="#2a2f1e" stroke="#0f1206" stroke-width="2.4000000000000004" stroke-linejoin="round" vector-effect="non-scaling-stroke"/><polygon points="-3.70,49.50 -3.85,40.88 -2.07,26.88 0.08,26.95 -0.70,40.99 -0.89,49.60" fill="#191d11" opacity="0.9"/><polygon points="3.60,27.01 4.04,18.40 3.34,4.33 -1.30,4.27 -2.32,18.32 -2.07,26.94" fill="#2a2f1e" stroke="#0f1206" stroke-width="2.4000000000000004" stroke-linejoin="round" vector-effect="non-scaling-stroke"/><polygon points="-2.07,26.94 -2.32,18.32 -1.30,4.27 0.46,4.29 0.10,18.35 0.08,26.97" fill="#191d11" opacity="0.9"/><polygon points="-0.87,6.44 2.50,6.62 2.85,3.19 6.25,1.65 6.66,0.29 -0.74,-0.10 -1.02,2.99" fill="#191d11" stroke="#0f1206" stroke-width="2.4000000000000004" stroke-linejoin="round" vector-effect="non-scaling-stroke"/><polygon points="-0.87,6.44 -1.02,2.99 -0.74,-0.10 2.66,-0.10 1.18,4.19 0.73,6.44" fill="#0b060f" opacity="0.9"/><polygon points="-1.07,8.15 2.52,8.34 2.72,5.60 -0.98,5.40" fill="#e0deb8" stroke="#0f1206" stroke-width="1.7600000000000002" stroke-linejoin="round" vector-effect="non-scaling-stroke"/><polygon points="7.12,58.92 7.22,67.60 6.99,73.00 5.44,79.59 -8.01,79.50 -11.15,77.92 -10.85,70.36 -9.21,58.58 -8.99,57.51" fill="#3a4029" stroke="#0f1206" stroke-width="2.4000000000000004" stroke-linejoin="round" vector-effect="non-scaling-stroke"/><polygon points="2.06,59.02 5.70,23.20 15.09,22.28 7.32,59.48" fill="#3a4029" stroke="#0f1206" stroke-width="2.4000000000000004" stroke-linejoin="round" vector-effect="non-scaling-stroke"/><polyline points="5.70,23.20 15.09,22.28" fill="none" stroke="#e0deb8" stroke-width="2.5600000000000005" stroke-linecap="round" stroke-linejoin="round" vector-effect="non-scaling-stroke"/><polygon points="-9.32,57.05 7.40,58.51 6.96,62.16 -9.76,60.70" fill="#e0deb8" stroke="#0f1206" stroke-width="1.7600000000000002" stroke-linejoin="round" vector-effect="non-scaling-stroke"/><polygon points="7.14,61.53 8.23,61.62 8.74,52.99 7.63,53.11" fill="#b8c96a" stroke="#0f1206" stroke-width="1.6" stroke-linejoin="round" vector-effect="non-scaling-stroke"/><polygon points="-4.95,81.21 -5.56,82.21 -5.63,84.14 -1.87,85.37 -0.79,83.76 -0.70,82.59" fill="#bdb692" stroke="#0f1206" stroke-width="2.4000000000000004" stroke-linejoin="round" vector-effect="non-scaling-stroke"/><polygon points="-10.19,83.69 -12.72,89.05 -14.60,95.66 -13.73,102.64 -6.34,105.55 -1.80,100.85 0.86,95.11 2.01,89.10 -1.11,85.61" fill="#e6e0c4" stroke="#0f1206" stroke-width="2.4000000000000004" stroke-linejoin="round" vector-effect="non-scaling-stroke"/><polygon points="-10.19,83.69 -12.72,89.05 -14.60,95.66 -13.73,102.64 -11.50,103.47 -13.34,95.04 -11.52,89.44 -6.89,84.15" fill="#bdb692" opacity="0.9"/><polygon points="-1.76,94.44 -1.07,96.09 -0.16,95.78 0.23,95.03 -0.68,95.34 -1.09,93.77" fill="#b8c96a"/><polygon points="-2.76,95.84 -1.73,98.27 -0.41,97.82 -0.02,97.06 -1.34,97.52 -2.10,95.18" fill="#b8c96a"/><polygon points="-5.61,96.43 -3.76,99.89 -1.12,99.54 -0.65,98.62 -2.95,99.09 -4.80,95.62" fill="#b8c96a"/><polygon points="-0.36,99.25 -2.47,102.90 -8.43,103.02 -15.33,99.13 -15.50,94.33 -13.44,88.82 -12.85,90.66 -13.16,93.65 -9.45,95.89 -2.03,98.71" fill="#1e2413" stroke="#0f1206" stroke-width="2.4000000000000004" stroke-linejoin="round" vector-effect="non-scaling-stroke"/><polygon points="-11.75,104.34 -13.33,106.23 -15.76,106.65 -17.89,105.42 -18.73,103.11 -17.89,100.80 -15.76,99.56 -13.33,99.99 -11.75,101.88" fill="#1e2413" stroke="#0f1206" stroke-width="2.4000000000000004" stroke-linejoin="round" vector-effect="non-scaling-stroke"/><polygon points="-10.02,79.10 -10.59,85.56 2.85,86.95 4.82,81.05" fill="#2a2f1e" stroke="#0f1206" stroke-width="1.92" stroke-linejoin="round" vector-effect="non-scaling-stroke"/><polygon points="-15.38,95.61 -0.60,100.82 -1.09,102.31 -15.90,97.19" fill="#f4f3dc" stroke="#0f1206" stroke-width="1.6" stroke-linejoin="round" vector-effect="non-scaling-stroke"/><polygon points="-4.66,78.95 -3.72,73.25 -3.34,63.83 -7.35,63.38 -9.08,72.65 -9.45,78.40" fill="#2a2f1e" stroke="#0f1206" stroke-width="2.4000000000000004" stroke-linejoin="round" vector-effect="non-scaling-stroke"/><polygon points="-9.45,78.40 -9.08,72.65 -7.35,63.38 -5.83,63.55 -7.05,72.88 -7.63,78.61" fill="#191d11" opacity="0.9"/><polygon points="-3.33,63.79 -2.61,58.44 -2.31,49.62 -5.82,49.31 -7.11,58.03 -7.36,63.43" fill="#2a2f1e" stroke="#0f1206" stroke-width="2.4000000000000004" stroke-linejoin="round" vector-effect="non-scaling-stroke"/><polygon points="-7.36,63.43 -7.11,58.03 -5.82,49.31 -4.49,49.43 -5.40,58.18 -5.83,63.56" fill="#191d11" opacity="0.9"/><polygon points="-2.44,55.32 -2.20,53.17 -2.18,49.64 -5.95,49.30 -6.57,52.78 -6.72,54.93" fill="#b8c96a" stroke="#0f1206" stroke-width="1.6" stroke-linejoin="round" vector-effect="non-scaling-stroke"/><polygon points="-2.36,49.62 -1.25,47.93 -1.33,44.99 -5.96,44.57 -6.57,47.45 -5.78,49.31" fill="#d9a67f" stroke="#0f1206" stroke-width="2.4000000000000004" stroke-linejoin="round" vector-effect="non-scaling-stroke"/></g><rect x="0.00" y="478.00" width="512.00" height="34.00" fill="#000" opacity="0.0"/></g><polygon points="30,0 512,0 512,482 482,512 0,512 0,30" fill="none" stroke="#dfe8a8" stroke-width="10" stroke-linejoin="miter"/><polygon points="30,0 512,0 512,482 482,512 0,512 0,30" fill="none" stroke="#14101f" stroke-width="2" stroke-linejoin="miter" transform="translate(0 0)"/><rect x="360.00" y="470.00" width="118.00" height="12.00" fill="#b8c96a" stroke="#14101f" stroke-width="2"/></svg>