<!-- Origin: procedural close-up crop written by art/concepts/closeups/gen.mjs (deterministic, no external images or fonts), Art Director session (Claude, claude-sonnet-5-5), 2026-10-02; prompt record art/prompts/ART-0011-closeup-directions.md -->
<svg xmlns="http://www.w3.org/2000/svg" width="200" height="200" viewBox="0 0 512 512"><defs><clipPath id="fc-q25"><polygon points="30,0 512,0 512,482 482,512 0,512 0,30"/></clipPath></defs><g clip-path="url(#fc-q25)"><rect width="512" height="512" fill="#e8c9c2"/><rect x="300" y="400" width="212" height="112" fill="#f0b4a8"/><rect x="372" y="328" width="140" height="72" fill="#f0b4a8"/><rect x="444" y="256" width="68" height="72" fill="#f0b4a8"/><rect x="20" y="20" width="90" height="90" fill="#f0b4a8"/><rect x="110" y="110" width="60" height="60" fill="#f0b4a8"/><g transform="translate(256.0 298.0) rotate(-6) scale(1.0)"><polygon points="-150.0,-170.0 150.0,-170.0 168.0,-122.0 168.0,108.0 132.0,172.0 -132.0,172.0 -168.0,108.0 -168.0,-122.0" fill="#c4aaa4" stroke="#14070a" stroke-width="7" stroke-linejoin="round"/><clipPath id="sh-q25"><polygon points="40,-260 300,-260 300,260 82,260"/></clipPath><g clip-path="url(#sh-q25)"><polygon points="-150.0,-170.0 150.0,-170.0 168.0,-122.0 168.0,108.0 132.0,172.0 -132.0,172.0 -168.0,108.0 -168.0,-122.0" fill="#85706c" opacity="0.55"/></g><polygon points="-4.0,-6.0 16.0,30.0 -12.0,38.0" fill="#85706c" opacity="0.55"/><polygon points="-60.9,-39.1 -129.2,-43.9 -130.9,-19.0 -62.7,-14.2" fill="#f3efe8" stroke="#14070a" stroke-width="7" stroke-linejoin="round"/><polygon points="-106.6,-39.1 -68.6,-39.1 -68.6,-14.2 -106.6,-14.2" fill="#14070a" /><polyline points="-60.9,-39.1 -129.2,-43.9 -130.9,-19.0" fill="none" stroke="#14070a" stroke-width="12" stroke-linecap="round" stroke-linejoin="round" /><polygon points="-34.0,-86.0 -130.0,-80.8 -130.0,-66.4 -34.0,-62.0" fill="#3a161c" stroke="#14070a" stroke-width="3" stroke-linejoin="round"/><polyline points="-58.0,112.0 0.0,108.0 63.8,86.0" fill="none" stroke="#14070a" stroke-width="10" stroke-linecap="round" stroke-linejoin="round" /><polyline points="63.8,86.0 71.8,76.0" fill="none" stroke="#14070a" stroke-width="7" stroke-linecap="round" stroke-linejoin="round" /><clipPath id="m-q25"><polygon points="16.0,-300.0 16.0,-150.0 52.0,-150.0 52.0,-70.0 52.0,10.0 88.0,10.0 88.0,90.0 124.0,90.0 124.0,172.0 124.0,300.0 300.0,300.0 300.0,-300.0"/></clipPath><clipPath id="hc-q25"><polygon points="-150.0,-170.0 150.0,-170.0 168.0,-122.0 168.0,108.0 132.0,172.0 -132.0,172.0 -168.0,108.0 -168.0,-122.0"/></clipPath><g clip-path="url(#hc-q25)"><g clip-path="url(#m-q25)"><polygon points="-150.0,-170.0 150.0,-170.0 168.0,-122.0 168.0,108.0 132.0,172.0 -132.0,172.0 -168.0,108.0 -168.0,-122.0" fill="#34313d" stroke="#14070a" stroke-width="7"/><clipPath id="sh-q25m"><polygon points="40,-260 300,-260 300,260 82,260"/></clipPath><g clip-path="url(#sh-q25m)"><polygon points="-150.0,-170.0 150.0,-170.0 168.0,-122.0 168.0,108.0 132.0,172.0 -132.0,172.0 -168.0,108.0 -168.0,-122.0" fill="#221f29" opacity="0.55"/></g><polygon points="54.4,-53.1 134.6,-57.9 137.4,-6.3 57.1,-1.6" fill="#d8705f" opacity="0.4"/><polygon points="60.4,-47.1 128.6,-51.9 131.4,-12.3 63.1,-7.6" fill="#f0b4a8" stroke="#d8705f" stroke-width="3" stroke-linejoin="round"/><polyline points="61.2,-35.8 129.4,-40.6" fill="none" stroke="#d8705f" stroke-width="4" stroke-linecap="round" stroke-linejoin="round" /><polyline points="62.6,-15.4 130.8,-20.2" fill="none" stroke="#d8705f" stroke-width="4" stroke-linecap="round" stroke-linejoin="round" /><polygon points="66.0,15.2 82.0,15.2 82.0,29.2 66.0,29.2" fill="#f0b4a8" opacity="0.9"/><polygon points="88.0,15.2 104.0,15.2 104.0,29.2 88.0,29.2" fill="#f0b4a8" opacity="0.9"/><polygon points="110.0,15.2 126.0,15.2 126.0,29.2 110.0,29.2" fill="#f0b4a8" opacity="0.9"/><polygon points="34.0,-104.0 130.0,-114.8 130.0,-100.4 34.0,-80.0" fill="#d8705f" stroke="#14070a" stroke-width="3" stroke-linejoin="round"/><polyline points="-58.0,112.0 0.0,108.0 63.8,86.0" fill="none" stroke="#f0b4a8" stroke-width="6" stroke-linecap="round" stroke-linejoin="round" /><polyline points="63.8,86.0 71.8,76.0" fill="none" stroke="#f0b4a8" stroke-width="4.199999999999999" stroke-linecap="round" stroke-linejoin="round" /><polygon points="-142.0,-50.0 -122.0,-50.0 -122.0,-30.0 -142.0,-30.0" fill="#f0b4a8" /><polygon points="-119.0,-27.0 -93.0,-27.0 -93.0,-1.0 -119.0,-1.0" fill="#f0b4a8" /><polygon points="-92.0,-2.0 -60.0,-2.0 -60.0,30.0 -92.0,30.0" fill="#f0b4a8" /><polygon points="-59.0,27.0 -21.0,27.0 -21.0,65.0 -59.0,65.0" fill="#f0b4a8" /></g><polyline points="16.0,-300.0 16.0,-150.0 52.0,-150.0 52.0,-70.0 52.0,10.0 88.0,10.0 88.0,90.0 124.0,90.0 124.0,172.0 124.0,300.0" fill="none" stroke="#14070a" stroke-width="9" stroke-linecap="round" stroke-linejoin="round" /><polyline points="16.0,-300.0 16.0,-150.0 52.0,-150.0 52.0,-70.0 52.0,10.0 88.0,10.0 88.0,90.0 124.0,90.0 124.0,172.0 124.0,300.0" fill="none" stroke="#f0b4a8" stroke-width="3.2" stroke-linecap="round" stroke-linejoin="round" /></g><polygon points="-130.0,-196.0 130.0,-196.0 158.0,-150.0 -158.0,-150.0" fill="#3a161c" stroke="#14070a" stroke-width="7" stroke-linejoin="round"/><polygon points="-60.0,-184.0 60.0,-184.0 60.0,-160.0 -60.0,-160.0" fill="#221f29" /></g></g><polygon points="30,0 512,0 512,482 482,512 0,512 0,30" fill="none" stroke="#8a3a30" stroke-width="10" stroke-linejoin="miter"/><polygon points="30,0 512,0 512,482 482,512 0,512 0,30" fill="none" stroke="#14101f" stroke-width="2"/><rect x="360" y="470" width="118" height="12" fill="#d8705f" stroke="#14101f" stroke-width="2"/></svg>