<!-- Origin: procedural close-up crop written by art/concepts/closeups/gen.mjs (deterministic, no external images or fonts), Art Director session (Claude, claude-sonnet-5-5), 2026-10-02; prompt record art/prompts/ART-0011-closeup-directions.md -->
<svg xmlns="http://www.w3.org/2000/svg" width="200" height="200" viewBox="0 0 512 512"><defs><clipPath id="fc-q29"><polygon points="30,0 512,0 512,482 482,512 0,512 0,30"/></clipPath></defs><g clip-path="url(#fc-q29)"><rect width="512" height="512" fill="#e8c9c2"/><rect x="300" y="400" width="212" height="112" fill="#f0b4a8"/><rect x="372" y="328" width="140" height="72" fill="#f0b4a8"/><rect x="444" y="256" width="68" height="72" fill="#f0b4a8"/><rect x="20" y="20" width="90" height="90" fill="#f0b4a8"/><rect x="110" y="110" width="60" height="60" fill="#f0b4a8"/><g transform="translate(256.0 294.0) rotate(-13) scale(1.0)"><polygon points="-150.0,-170.0 150.0,-170.0 168.0,-122.0 168.0,108.0 132.0,172.0 -132.0,172.0 -168.0,108.0 -168.0,-122.0" fill="#c4aaa4" stroke="#14070a" stroke-width="7" stroke-linejoin="round"/><clipPath id="sh-q29"><polygon points="40,-260 300,-260 300,260 82,260"/></clipPath><g clip-path="url(#sh-q29)"><polygon points="-150.0,-170.0 150.0,-170.0 168.0,-122.0 168.0,108.0 132.0,172.0 -132.0,172.0 -168.0,108.0 -168.0,-122.0" fill="#85706c" opacity="0.55"/></g><polygon points="-4.0,-6.0 16.0,30.0 -12.0,38.0" fill="#85706c" opacity="0.55"/><polygon points="-60.7,-36.8 -128.7,-43.9 -131.1,-21.1 -63.1,-14.0" fill="#f3efe8" stroke="#14070a" stroke-width="7" stroke-linejoin="round"/><polygon points="-103.0,-36.0 -65.0,-36.0 -65.0,-13.0 -103.0,-13.0" fill="#14070a" /><polyline points="-60.7,-36.8 -128.7,-43.9 -131.1,-21.1" fill="none" stroke="#14070a" stroke-width="12" stroke-linecap="round" stroke-linejoin="round" /><polygon points="-34.0,-78.0 -130.0,-70.8 -130.0,-56.4 -34.0,-54.0" fill="#3a161c" stroke="#14070a" stroke-width="3" stroke-linejoin="round"/><polyline points="-58.0,102.0 -17.4,112.0 40.6,110.0 60.9,126.0" fill="none" stroke="#14070a" stroke-width="10" stroke-linecap="round" stroke-linejoin="round" /><polyline points="-58.0,102.0 -67.0,90.0" fill="none" stroke="#14070a" stroke-width="7" stroke-linecap="round" stroke-linejoin="round" /><polyline points="31.9,94.0 49.3,100.0" fill="none" stroke="#14070a" stroke-width="5" stroke-linecap="round" stroke-linejoin="round" opacity="0.7"/><clipPath id="m-q29"><polygon points="16.0,-300.0 16.0,-150.0 52.0,-150.0 52.0,-70.0 52.0,10.0 88.0,10.0 88.0,90.0 124.0,90.0 124.0,172.0 124.0,300.0 300.0,300.0 300.0,-300.0"/></clipPath><clipPath id="hc-q29"><polygon points="-150.0,-170.0 150.0,-170.0 168.0,-122.0 168.0,108.0 132.0,172.0 -132.0,172.0 -168.0,108.0 -168.0,-122.0"/></clipPath><g clip-path="url(#hc-q29)"><g clip-path="url(#m-q29)"><polygon points="-150.0,-170.0 150.0,-170.0 168.0,-122.0 168.0,108.0 132.0,172.0 -132.0,172.0 -168.0,108.0 -168.0,-122.0" fill="#34313d" stroke="#14070a" stroke-width="7"/><clipPath id="sh-q29m"><polygon points="40,-260 300,-260 300,260 82,260"/></clipPath><g clip-path="url(#sh-q29m)"><polygon points="-150.0,-170.0 150.0,-170.0 168.0,-122.0 168.0,108.0 132.0,172.0 -132.0,172.0 -168.0,108.0 -168.0,-122.0" fill="#221f29" opacity="0.55"/></g><polygon points="60.4,-39.5 128.4,-46.6 131.3,-18.9 63.3,-11.7" fill="#f6e8da" stroke="#cdb4a6" stroke-width="3" stroke-linejoin="round"/><polygon points="34.0,-118.0 130.0,-130.8 130.0,-116.4 34.0,-94.0" fill="#f6e8da" stroke="#14070a" stroke-width="3" stroke-linejoin="round"/><polyline points="-58.0,102.0 -17.4,112.0 40.6,110.0 60.9,126.0" fill="none" stroke="#f6e8da" stroke-width="6" stroke-linecap="round" stroke-linejoin="round" /><polyline points="-58.0,102.0 -67.0,90.0" fill="none" stroke="#f6e8da" stroke-width="4.199999999999999" stroke-linecap="round" stroke-linejoin="round" /><polyline points="31.9,94.0 49.3,100.0" fill="none" stroke="#f6e8da" stroke-width="3" stroke-linecap="round" stroke-linejoin="round" opacity="0.7"/><polygon points="138.0,100.0 158.0,100.0 158.0,112.0 138.0,112.0" fill="#f6e8da" stroke="#cdb4a6" stroke-width="2"/><polygon points="138.0,120.0 158.0,120.0 158.0,132.0 138.0,132.0" fill="#f6e8da" stroke="#cdb4a6" stroke-width="2"/><polygon points="138.0,140.0 158.0,140.0 158.0,152.0 138.0,152.0" fill="#f6e8da" stroke="#cdb4a6" stroke-width="2"/></g><polyline points="16.0,-300.0 16.0,-150.0 52.0,-150.0 52.0,-70.0 52.0,10.0 88.0,10.0 88.0,90.0 124.0,90.0 124.0,172.0 124.0,300.0" fill="none" stroke="#14070a" stroke-width="9" stroke-linecap="round" stroke-linejoin="round" /><polyline points="16.0,-300.0 16.0,-150.0 52.0,-150.0 52.0,-70.0 52.0,10.0 88.0,10.0 88.0,90.0 124.0,90.0 124.0,172.0 124.0,300.0" fill="none" stroke="#f6e8da" stroke-width="3.2" stroke-linecap="round" stroke-linejoin="round" /></g><polygon points="-130.0,-196.0 130.0,-196.0 158.0,-150.0 -158.0,-150.0" fill="#3a161c" stroke="#14070a" stroke-width="7" stroke-linejoin="round"/><polygon points="-60.0,-184.0 60.0,-184.0 60.0,-160.0 -60.0,-160.0" fill="#221f29" /></g></g><polygon points="30,0 512,0 512,482 482,512 0,512 0,30" fill="none" stroke="#8a3a30" stroke-width="10" stroke-linejoin="miter"/><polygon points="30,0 512,0 512,482 482,512 0,512 0,30" fill="none" stroke="#14101f" stroke-width="2"/><rect x="360" y="470" width="118" height="12" fill="#d8705f" stroke="#14101f" stroke-width="2"/></svg>